<svg xmlns="http://www.w3.org/2000/svg" viewBox="0 0 344.21 190.02"><defs><style>.cls-1,.cls-4{fill:#f79725;}.cls-1,.cls-5,.cls-7{fill-rule:evenodd;}.cls-2,.cls-5{fill:#efcf45;}.cls-3{fill:#fff;stroke:#193f48;stroke-miterlimit:10;stroke-width:0.25px;}.cls-6,.cls-7{fill:#595959;}</style></defs><title>404bgimg</title><g id="Слой_2" data-name="Слой 2"><g id="OBJECTS"><path class="cls-1" d="M198.8,185.05c-.45,3.46-5.82,5.61-12,4.8s-10.78-4.28-10.33-7.74,5.82-5.6,12-4.79S199.26,181.59,198.8,185.05Z"/><circle class="cls-2" cx="108.69" cy="47.75" r="12.75"/><path class="cls-1" d="M108.69,35a12.75,12.75,0,0,0-6.24,1.63,1.9,1.9,0,0,0,.31.42c1.29,1.3,4.36,1.36,6.07,1.44a20.71,20.71,0,0,0,7.42-1A12.72,12.72,0,0,0,108.69,35Z"/><path class="cls-1" d="M118.44,41.82a7,7,0,0,0,1.23-.53,13.72,13.72,0,0,0-1.1-1.6l-3.82,1.71a19.5,19.5,0,0,1-3,1.16A17.93,17.93,0,0,1,107,43a97.18,97.18,0,0,1-9.8-.7,12.69,12.69,0,0,0-1,8.17,13.11,13.11,0,0,0,1.88-1.09,24.87,24.87,0,0,1,5.28-2.31Z"/><path class="cls-1" d="M120.4,42.72c-1,.89-1.72,2.06-2.79,2.9a15.07,15.07,0,0,1-3.74,2.13c-.94.37-1.93.65-2.83,1.11-.34.17-.7.4-.78.77-.15.65.62,1.12,1.27,1.27a14.58,14.58,0,0,0,4,.19l4.71-.2c.28,0,.57,0,.85-.07a13,13,0,0,0,.39-3.07A12.61,12.61,0,0,0,120.4,42.72Z"/><path class="cls-1" d="M109,47.4a29.81,29.81,0,0,0-6.58,2.15,33.23,33.23,0,0,1-4.24,1.86,7.92,7.92,0,0,1-1.66.2,12.75,12.75,0,0,0,4,6l.38-.48c1.9-2.53,3.2-5.73,6-7.3a10,10,0,0,0,1.48-.89A1.65,1.65,0,0,0,109,47.4Z"/><path class="cls-1" d="M120.2,53.2a2,2,0,0,0-.42,0l-8.17.45a9.55,9.55,0,0,0-4.88,1.17,9.51,9.51,0,0,0-2.49,3c-.23.38-.66.9-1,1.45a12.76,12.76,0,0,0,5.16,1.24c.34-.42.64-.87,1-1.29A11.24,11.24,0,0,1,117,54.85c.8-.09,1.61-.09,2.4-.17A12.61,12.61,0,0,0,120.2,53.2Z"/><path class="cls-3" d="M96.18,55.91c-4.57,0-8.3-.73-8.72-2.92s2.3-4.22,8-6.39a1,1,0,1,1,.71,1.87c-5.8,2.2-6.83,3.84-6.78,4.13.21,1.1,7.42,2.37,20.42-.15A70.87,70.87,0,0,0,124,48.32c4.2-1.84,4.89-3.11,4.84-3.35s-1.7-1.48-8.24-1.29a1,1,0,0,1-1-1,1,1,0,0,1,1-1c6.4-.2,9.86.79,10.27,2.91.35,1.82-1.61,3.64-6,5.56a72.22,72.22,0,0,1-14.58,4.26A80,80,0,0,1,96.18,55.91Z"/><circle class="cls-4" cx="305.99" cy="71.5" r="10.27" transform="translate(-8 59.17) rotate(-10.9)"/><path class="cls-5" d="M310.88,62.47a10.18,10.18,0,0,0-5-1.23,1.4,1.4,0,0,0,.06.41c.41,1.42,2.56,2.63,3.74,3.35a16.8,16.8,0,0,0,5.64,2.14A10.22,10.22,0,0,0,310.88,62.47Z"/><path class="cls-5" d="M315.17,71a5.61,5.61,0,0,0,1.07.1,9,9,0,0,0-.16-1.56l-3.36-.25a16.11,16.11,0,0,1-2.59-.34,14.42,14.42,0,0,1-3.52-1.52,76.94,76.94,0,0,1-6.67-4.26,10.22,10.22,0,0,0-3,3.4,10.08,10.08,0,0,0-.83,2,9.32,9.32,0,0,0,1.75-.06,20.61,20.61,0,0,1,4.63.4Z"/><path class="cls-5" d="M316.22,72.43c-1,.25-2,.8-3.09,1a12.23,12.23,0,0,1-3.47.08c-.81-.1-1.61-.28-2.43-.3a1.06,1.06,0,0,0-.85.25c-.35.4,0,1,.42,1.39a12.18,12.18,0,0,0,2.73,1.65l3.41,1.66.63.28a10.23,10.23,0,0,0,2.65-6Z"/><path class="cls-5" d="M306.36,71.38a24.36,24.36,0,0,0-5.49-1,27,27,0,0,1-3.71-.31,5.93,5.93,0,0,1-1.26-.49,10.28,10.28,0,0,0,.58,5.79l.45-.19c2.32-1.07,4.46-2.83,7-2.89a6.48,6.48,0,0,0,1.39-.07A1.3,1.3,0,0,0,306.36,71.38Z"/><path class="cls-5" d="M312.06,79.77l-.3-.17-6-2.81a7.58,7.58,0,0,0-3.9-1A7.48,7.48,0,0,0,299,76.91c-.31.18-.81.38-1.3.63a10.28,10.28,0,0,0,3.18,2.85c.4-.17.79-.37,1.18-.55a9,9,0,0,1,7.1-.13c.59.25,1.17.55,1.76.8A10.71,10.71,0,0,0,312.06,79.77Z"/><ellipse class="cls-4" cx="191.81" cy="101.39" rx="15.75" ry="7" transform="translate(-25.12 97.81) rotate(-26.92)"/><path class="cls-5" d="M189.64,98.15c7-3.56,14-4.21,16.53-1.77a3.59,3.59,0,0,0-.32-2.12c-1.75-3.44-9.45-3.05-17.21.89s-12.63,9.93-10.88,13.37a3.09,3.09,0,0,0,.69.88C178.89,106,183.3,101.37,189.64,98.15Z"/><path class="cls-1" d="M243.62,165.74c-1.38,2.2-6.51,1.47-11.46-1.62s-7.85-7.39-6.47-9.59,6.5-1.48,11.45,1.62S245,163.54,243.62,165.74Z"/><path class="cls-5" d="M235.76,157.76c4.48,2.8,7.26,6.57,6.75,8.89a2.5,2.5,0,0,0,1.11-.91c1.37-2.2-1.53-6.5-6.48-9.59s-10.08-3.82-11.45-1.62a1.93,1.93,0,0,0-.27.7C227.55,154.29,231.72,155.23,235.76,157.76Z"/><path class="cls-5" d="M188.48,177.32c-6.16-.81-11.52,1.33-12,4.79a3.87,3.87,0,0,0,0,.76c1.34-2.8,6.17-4.41,11.63-3.69,5.72.75,10.1,3.79,10.34,7a3.58,3.58,0,0,0,.34-1.11C199.26,181.59,194.64,178.13,188.48,177.32Z"/><circle class="cls-4" cx="35.46" cy="91.92" r="3.25"/><path class="cls-1" d="M224.33,2.92a1.46,1.46,0,1,1,1.46-1.46A1.47,1.47,0,0,1,224.33,2.92Z"/><circle class="cls-4" cx="245" cy="28.5" r="1.46"/><circle class="cls-6" cx="1.46" cy="75.96" r="1.46"/><path class="cls-7" d="M210,54.13a1.88,1.88,0,1,1-1.88-1.88A1.88,1.88,0,0,1,210,54.13Z"/><path class="cls-7" d="M288.83,140.38A1.88,1.88,0,1,1,287,138.5,1.87,1.87,0,0,1,288.83,140.38Z"/><path class="cls-7" d="M344.21,143.5a1.88,1.88,0,1,1-1.88-1.88A1.88,1.88,0,0,1,344.21,143.5Z"/><path class="cls-7" d="M48.83,170.88A1.88,1.88,0,1,1,47,169,1.87,1.87,0,0,1,48.83,170.88Z"/><path class="cls-7" d="M157.21,35a1.88,1.88,0,1,1-1.88-1.88A1.88,1.88,0,0,1,157.21,35Z"/><polygon class="cls-7" points="134.45 80.61 136.96 82.04 134.4 83.38 132.97 85.88 131.63 83.33 129.13 81.9 131.69 80.56 133.12 78.06 134.45 80.61"/><polygon class="cls-7" points="252.33 54.28 253.96 55.21 252.29 56.08 251.36 57.72 250.49 56.05 248.85 55.12 250.52 54.24 251.46 52.61 252.33 54.28"/><polygon class="cls-7" points="59.49 132.69 61.13 133.63 59.46 134.5 58.52 136.13 57.65 134.47 56.02 133.53 57.69 132.66 58.62 131.03 59.49 132.69"/><polygon class="cls-7" points="60.42 66.06 62.06 67 60.39 67.87 59.46 69.5 58.59 67.83 56.95 66.9 58.62 66.03 59.55 64.39 60.42 66.06"/><polygon class="cls-7" points="10.46 165.5 12.09 166.43 10.42 167.3 9.49 168.94 8.62 167.27 6.99 166.34 8.65 165.47 9.59 163.83 10.46 165.5"/><polygon class="cls-7" points="307.3 119.39 308.93 120.33 307.26 121.2 306.33 122.83 305.46 121.17 303.82 120.23 305.49 119.36 306.43 117.73 307.3 119.39"/><polygon class="cls-7" points="327.46 185.16 329.09 186.1 327.42 186.97 326.49 188.6 325.62 186.94 323.99 186 325.65 185.13 326.59 183.5 327.46 185.16"/></g></g></svg>