<?xml version="1.0" encoding="utf-8"?>
<!-- Generator: Adobe Illustrator 22.1.0, SVG Export Plug-In . SVG Version: 6.00 Build 0)  -->
<svg version="1.1" id="Слой_1" xmlns="http://www.w3.org/2000/svg" xmlns:xlink="http://www.w3.org/1999/xlink" x="0px" y="0px"
	 viewBox="0 0 710 232" style="enable-background:new 0 0 710 232;" xml:space="preserve">
<style type="text/css">
	.st0{fill-rule:evenodd;clip-rule:evenodd;fill:#323232;}
	.st1{fill-rule:evenodd;clip-rule:evenodd;fill:#F0D247;stroke:#F0D247;stroke-width:3;stroke-miterlimit:10;}
</style>
<g>
	<g>
		<path class="st0" d="M30.6,170.7l-4.3,19.2l-4.6-19.2h-7.5L12,198.5h5.7l0.6-11.2c0.1-1.8,0.2-3.8,0.2-6c0-2-0.1-3.9-0.2-5.5
			l5,19.7H29l4.7-19.7c0,0.6,0,1.5,0,2.7c0,2.4,0.1,5.2,0.3,8.6l0.6,11.3h5.8l-2.1-27.8H30.6z M53.7,176.5c-2.1,0-3.9,0.5-5.5,1.4
			c-1.5,0.9-2.7,2.3-3.5,4c-0.8,1.7-1.2,3.7-1.2,5.9c0,3.5,0.9,6.3,2.7,8.3c1.8,2,4.3,3,7.5,3c2.1,0,3.9-0.5,5.4-1.4
			c1.5-0.9,2.7-2.3,3.5-4c0.8-1.7,1.2-3.7,1.2-5.9c0-3.5-0.9-6.3-2.7-8.3C59.4,177.5,56.9,176.5,53.7,176.5z M56.8,193.2
			c-0.7,1.1-1.8,1.7-3.2,1.7c-1.4,0-2.5-0.6-3.2-1.7c-0.7-1.1-1.1-2.9-1.1-5.3s0.4-4.2,1.1-5.3c0.7-1.1,1.8-1.7,3.2-1.7
			c1.4,0,2.5,0.6,3.2,1.7c0.7,1.1,1,2.9,1,5.3S57.5,192,56.8,193.2z M80.5,185.5h-6.6v-8.3h-5.7v21.3h5.7v-8.7h6.6v8.7h5.7v-21.3
			h-5.7V185.5z M89.1,177.2v4.3h6.4v17h5.7v-17h6l0.7-4.3H89.1z M125.6,194.4c-0.2-0.4-0.4-1-0.4-1.8V184c0-2.5-0.7-4.3-2.1-5.6
			c-1.4-1.2-3.5-1.9-6.4-1.9c-2.6,0-5.2,0.5-7.9,1.6l1.3,3.8c2.3-0.8,4.1-1.1,5.6-1.1c1.4,0,2.3,0.3,2.9,0.8
			c0.6,0.5,0.9,1.4,0.9,2.7v1h-2.5c-3.2,0-5.6,0.6-7.3,1.8c-1.7,1.2-2.5,3-2.5,5.3c0,2,0.6,3.5,1.9,4.8c1.2,1.2,2.9,1.8,5,1.8
			c2.9,0,5-1.1,6.4-3.2c0.4,1,1,1.8,1.8,2.3c0.8,0.5,1.8,0.8,3.1,0.9l1.2-3.8C126.3,195.1,125.9,194.8,125.6,194.4z M119.7,192.7
			c-0.9,1.6-2.2,2.4-3.8,2.4c-0.9,0-1.6-0.3-2-0.8c-0.5-0.5-0.7-1.3-0.7-2.2c0-2.3,1.5-3.5,4.6-3.5h1.9V192.7z M157.4,177.2h-5.4
			l-4,8.5h-2.2v-8.5h-5.1v8.5h-2.2l-3.9-8.5h-5.5l5,9.9l-5.5,11.4h5.8l4.2-9.2h2.1v9.2h5.1v-9.2h2.1l4.2,9.2h5.9l-5.5-11.4
			L157.4,177.2z M196.2,184.8l-4.9-1.4c-0.5,2.2-1.2,4.2-2,6l-5.9-5.5c1.7-1.1,3.1-2.2,4-3.4c0.9-1.2,1.4-2.6,1.4-4.1
			c0-1.2-0.3-2.3-1-3.3c-0.7-1-1.6-1.7-2.9-2.3c-1.3-0.5-2.7-0.8-4.4-0.8c-1.8,0-3.3,0.3-4.5,0.9c-1.2,0.6-2.2,1.4-2.8,2.4
			c-0.6,1-0.9,2.1-0.9,3.3c0,1.3,0.3,2.4,0.9,3.4c0.6,1,1.6,2.2,3,3.5c-1.9,1.2-3.3,2.4-4.1,3.6c-0.9,1.2-1.3,2.6-1.3,4.3
			c0,1.6,0.4,2.9,1.2,4.1c0.8,1.2,2,2.1,3.4,2.7c1.5,0.6,3.2,1,5.1,1c3.5,0,6.4-1.1,8.8-3.2l3.3,3.2l4.7-2.5l-4.8-4.3
			C193.9,190.3,195.2,187.8,196.2,184.8z M178.5,174.6c0.5-0.5,1.2-0.8,2.1-0.8c0.9,0,1.5,0.2,2,0.7c0.5,0.5,0.7,1.2,0.7,2
			c0,0.9-0.3,1.6-0.8,2.3c-0.5,0.7-1.3,1.4-2.3,2c-0.9-0.9-1.6-1.6-1.9-2.3c-0.4-0.6-0.6-1.3-0.6-2.1
			C177.8,175.8,178,175.1,178.5,174.6z M181.3,195c-1.4,0-2.6-0.3-3.4-1c-0.9-0.7-1.3-1.6-1.3-2.9c0-0.9,0.2-1.7,0.7-2.4
			c0.4-0.7,1.1-1.4,2.1-2.1l6.9,6.6C184.8,194.4,183.2,195,181.3,195z M228.6,171.7c-1.8-1.1-4-1.7-6.6-1.7c-2.5,0-4.7,0.6-6.6,1.7
			c-1.9,1.2-3.3,2.8-4.3,5c-1,2.2-1.5,4.8-1.5,7.8c0,3.1,0.5,5.7,1.5,7.9c1,2.2,2.4,3.8,4.3,5c1.9,1.1,4.1,1.7,6.6,1.7
			c2.5,0,4.7-0.6,6.6-1.7c1.8-1.2,3.3-2.8,4.3-5c1-2.2,1.5-4.8,1.5-7.8c0-3.1-0.5-5.7-1.5-7.9C231.9,174.5,230.5,172.9,228.6,171.7z
			 M226.6,192.3c-1,1.6-2.5,2.4-4.6,2.4c-2,0-3.5-0.8-4.6-2.4s-1.6-4.2-1.6-7.7c0-3.5,0.5-6.1,1.5-7.7c1-1.6,2.6-2.4,4.6-2.4
			c2,0,3.6,0.8,4.6,2.4c1,1.6,1.5,4.2,1.5,7.7C228.2,188.1,227.6,190.7,226.6,192.3z M253.6,179.8c-1.2-0.8-2.6-1.2-4.1-1.2
			c-2.8,0-5,1.2-6.5,3.5c0.2-1.6,0.4-2.8,0.9-3.8c0.4-0.9,1-1.6,1.7-2.2c0.7-0.5,1.7-1,2.9-1.4c1.5-0.5,2.8-0.9,3.8-1.4
			c1-0.5,2-1,3-1.6l-2.1-3.7c-1.1,0.7-2.2,1.3-3.1,1.7c-1,0.4-2.2,0.9-3.9,1.4c-2.3,0.7-4,1.7-5.2,3c-1.2,1.3-2.1,2.9-2.6,4.9
			c-0.5,2-0.8,4.5-0.8,7.6c0,4.2,0.9,7.4,2.7,9.4c1.8,2.1,4.3,3.1,7.4,3.1c2,0,3.7-0.4,5.2-1.3c1.5-0.9,2.7-2.1,3.5-3.7
			c0.8-1.6,1.2-3.5,1.2-5.7c0-2-0.3-3.8-1-5.3C255.8,181.7,254.8,180.6,253.6,179.8z M250.5,193.5c-0.7,0.9-1.7,1.4-3,1.4
			c-1.3,0-2.3-0.5-3-1.6c-0.7-1.1-1.1-2.6-1.1-4.7v-2.7c0.5-1,1.2-1.7,2-2.2c0.8-0.5,1.7-0.7,2.6-0.7c1.2,0,2.1,0.4,2.7,1.3
			c0.6,0.9,0.9,2.4,0.9,4.5C251.6,191,251.2,192.6,250.5,193.5z M271.1,181c0.8,0,1.5,0.1,2.2,0.4c0.7,0.2,1.3,0.6,2,1.2l2.5-3.4
			c-1-0.9-2.1-1.5-3.2-1.9c-1.1-0.4-2.4-0.6-3.8-0.6c-2,0-3.8,0.5-5.4,1.4c-1.5,1-2.7,2.3-3.6,4c-0.8,1.7-1.2,3.7-1.2,6
			s0.4,4.2,1.2,5.9c0.8,1.7,2,3,3.6,3.9c1.5,0.9,3.4,1.4,5.4,1.4c2.6,0,5-0.8,7-2.5l-2.5-3.6c-0.8,0.5-1.6,0.9-2.2,1.1
			c-0.6,0.2-1.3,0.3-2.1,0.3c-1.4,0-2.6-0.5-3.3-1.5c-0.8-1-1.2-2.7-1.2-5.1C266.6,183.3,268.1,181,271.1,181z M282.3,186.3
			c-0.2,2.4-0.3,4.1-0.5,5.1c-0.2,1-0.4,1.7-0.8,2.2c-0.4,0.5-1,0.9-1.9,1.3l1.4,4.2c1.9-0.5,3.3-1.1,4.2-1.9c0.9-0.8,1.6-2,2-3.5
			c0.4-1.5,0.7-3.8,1-6.9l0.4-5.2h4.7v17h5.7v-21.3H283L282.3,186.3z M311.5,194.8l-4.3-17.6h-6.1l6.6,21.3h2
			c-0.6,1.5-1.4,2.6-2.4,3.3c-1,0.7-2.4,1.2-4.5,1.4l0.6,4.1c3.1-0.2,5.6-1.1,7.5-2.5c1.8-1.5,3.2-3.6,4-6.3l6.9-21.3H316
			L311.5,194.8z M351,177.2h-5.4l-4,8.5h-2.2v-8.5h-5.1v8.5h-2.2l-3.9-8.5h-5.5l5,9.9l-5.5,11.4h5.8l4.2-9.2h2.1v9.2h5.1v-9.2h2.1
			l4.2,9.2h5.9l-5.5-11.4L351,177.2z M359.5,192.9c0.2-0.8,0.4-1.8,0.5-3.2c0.1-1.4,0.2-2.8,0.2-4.3v-8.2h-5.5v21.3h6l7.6-15.7
			c-0.2,0.8-0.4,1.9-0.5,3.3c-0.2,1.4-0.2,2.8-0.2,4.3v8.1h5.5v-21.3h-6L359.5,192.9z M391.2,186.8c1.4-0.3,2.6-0.8,3.3-1.5
			c0.8-0.8,1.1-1.7,1.1-3c0-1.9-0.8-3.3-2.4-4.3c-1.6-1-3.8-1.5-6.6-1.5c-2.4,0-5.1,0.3-8.1,0.9v21.1h8.7c2.9,0,5.2-0.5,6.9-1.6
			c1.7-1.1,2.5-2.7,2.5-4.9C396.6,189,394.8,187.2,391.2,186.8z M384.3,180.4c0.8-0.1,1.6-0.1,2.3-0.1c1.2,0,2,0.2,2.6,0.6
			c0.6,0.4,0.9,1.1,0.9,2c0,0.9-0.3,1.6-0.8,2c-0.5,0.4-1.3,0.6-2.3,0.6h-2.7V180.4z M387.1,194.6h-2.9v-5.8h2.9
			c1.3,0,2.2,0.2,2.8,0.7c0.6,0.5,0.9,1.2,0.9,2.1C390.8,193.6,389.6,194.6,387.1,194.6z M417.2,194.4c-0.2-0.4-0.4-1-0.4-1.8V184
			c0-2.5-0.7-4.3-2.1-5.6c-1.4-1.2-3.5-1.9-6.4-1.9c-2.6,0-5.2,0.5-7.9,1.6l1.3,3.8c2.3-0.8,4.1-1.1,5.6-1.1c1.4,0,2.3,0.3,2.9,0.8
			c0.6,0.5,0.9,1.4,0.9,2.7v1h-2.5c-3.2,0-5.6,0.6-7.3,1.8c-1.7,1.2-2.5,3-2.5,5.3c0,2,0.6,3.5,1.9,4.8c1.2,1.2,2.9,1.8,5,1.8
			c2.9,0,5-1.1,6.4-3.2c0.4,1,1,1.8,1.8,2.3c0.8,0.5,1.8,0.8,3.1,0.9l1.2-3.8C417.9,195.1,417.5,194.8,417.2,194.4z M411.3,192.7
			c-0.9,1.6-2.2,2.4-3.8,2.4c-0.9,0-1.6-0.3-2-0.8c-0.5-0.5-0.7-1.3-0.7-2.2c0-2.3,1.5-3.5,4.6-3.5h1.9V192.7z M434.9,185.5h-6.6
			v-8.3h-5.7v21.3h5.7v-8.7h6.6v8.7h5.7v-21.3h-5.7V185.5z M451,192.9c0.2-0.8,0.4-1.8,0.5-3.2c0.1-1.4,0.2-2.8,0.2-4.3v-8.2h-5.5
			v21.3h6l7.6-15.7c-0.2,0.8-0.4,1.9-0.5,3.3s-0.2,2.8-0.2,4.3v8.1h5.5v-21.3h-6L451,192.9z M478.5,176.5c-2,0-3.7,0.5-5.2,1.5
			c-1.5,1-2.6,2.4-3.3,4.1c-0.8,1.7-1.1,3.7-1.1,5.8c0,3.4,0.9,6.2,2.7,8.2c1.8,2,4.4,3,7.7,3c3,0,5.7-1,8.1-2.9l-2.4-3.2
			c-0.9,0.6-1.8,1.1-2.6,1.4c-0.8,0.3-1.7,0.4-2.6,0.4c-1.5,0-2.6-0.4-3.5-1.2c-0.9-0.8-1.4-2.2-1.6-4.1H488
			c0.1-1.2,0.1-1.9,0.1-2.2c0-3.4-0.8-6.1-2.5-8C483.9,177.5,481.5,176.5,478.5,176.5z M482.4,186h-7.8c0.1-2,0.5-3.4,1.2-4.2
			c0.7-0.9,1.6-1.3,2.8-1.3c2.5,0,3.8,1.8,3.8,5.3V186z M508.5,170c-1.8,0-3.4,0.3-4.7,0.8c-1.3,0.5-2.6,1.3-3.8,2.3l2.9,3.3
			c0.9-0.7,1.8-1.2,2.6-1.5c0.8-0.3,1.7-0.5,2.8-0.5c3.2,0,4.9,2.5,5.2,7.6h-9.7v4.3h9.7c-0.2,5.5-2.1,8.2-5.7,8.2
			c-1.1,0-2-0.2-2.8-0.5c-0.8-0.3-1.6-0.8-2.5-1.5l-2.7,3.3c1,1,2.2,1.8,3.6,2.3c1.3,0.6,2.9,0.8,4.7,0.8c3.6,0,6.4-1.3,8.4-3.8
			c2-2.5,3-6.2,3-11c0-4.8-1-8.4-2.9-10.8C514.6,171.2,511.9,170,508.5,170z M524.5,186.3c-0.2,2.4-0.3,4.1-0.5,5.1
			c-0.2,1-0.4,1.7-0.8,2.2c-0.4,0.5-1,0.9-1.9,1.3l1.4,4.2c1.9-0.5,3.3-1.1,4.2-1.9c0.9-0.8,1.6-2,2-3.5c0.4-1.5,0.7-3.8,1-6.9
			l0.4-5.2h4.7v17h5.7v-21.3h-15.5L524.5,186.3z M554.6,176.5c-2,0-3.7,0.5-5.2,1.5c-1.5,1-2.6,2.4-3.3,4.1s-1.1,3.7-1.1,5.8
			c0,3.4,0.9,6.2,2.7,8.2c1.8,2,4.4,3,7.7,3c3,0,5.7-1,8.1-2.9l-2.4-3.2c-0.9,0.6-1.8,1.1-2.6,1.4c-0.8,0.3-1.7,0.4-2.6,0.4
			c-1.5,0-2.6-0.4-3.5-1.2c-0.9-0.8-1.4-2.2-1.6-4.1h13.3c0.1-1.2,0.1-1.9,0.1-2.2c0-3.4-0.8-6.1-2.5-8
			C560,177.5,557.7,176.5,554.6,176.5z M558.6,186h-7.8c0.1-2,0.5-3.4,1.2-4.2c0.7-0.9,1.6-1.3,2.8-1.3c2.5,0,3.8,1.8,3.8,5.3V186z
			 M586.8,177.2h-5.6l-4.8,8.4h-2.3v-8.4h-5.7v21.3h5.7v-9.3h2.1l4.9,9.3h6.2l-6.4-11.4L586.8,177.2z M587.5,181.5h6.4v17h5.7v-17h6
			l0.7-4.3h-18.9V181.5z M620.4,176.5c-1.2,0-2.3,0.3-3.4,0.8c-1.1,0.5-2,1.3-2.8,2.4l-0.3-2.5h-5v30.2l5.7-0.6v-9.8
			c1.3,1.5,3.1,2.3,5.3,2.3c1.7,0,3.2-0.5,4.5-1.5c1.3-1,2.2-2.3,2.9-4c0.7-1.7,1-3.7,1-5.8c0-3.6-0.7-6.3-1.9-8.3
			C625.1,177.5,623.1,176.5,620.4,176.5z M618.2,194.9c-1.5,0-2.7-0.7-3.6-2.1v-9.3c0.5-0.8,1.1-1.5,1.8-2c0.7-0.5,1.4-0.7,2.2-0.7
			c1.3,0,2.2,0.5,2.8,1.6c0.6,1.1,0.9,2.9,0.9,5.5C622.4,192.5,621,194.9,618.2,194.9z M637.6,192.9c0.2-0.8,0.4-1.8,0.5-3.2
			c0.1-1.4,0.2-2.8,0.2-4.3v-8.2h-5.5v21.3h6l7.6-15.7c-0.2,0.8-0.4,1.9-0.5,3.3c-0.2,1.4-0.2,2.8-0.2,4.3v8.1h5.5v-21.3h-6
			L637.6,192.9z M675.1,177.2h-5.6l-4.8,8.4h-2.3v-8.4h-5.7v21.3h5.7v-9.3h2.1l4.9,9.3h6.2l-6.4-11.4L675.1,177.2z M683.2,192.9
			c0.2-0.8,0.4-1.8,0.5-3.2c0.1-1.4,0.2-2.8,0.2-4.3v-8.2h-5.5v21.3h6l7.6-15.7c-0.2,0.8-0.4,1.9-0.5,3.3c-0.2,1.4-0.2,2.8-0.2,4.3
			v8.1h5.5v-21.3h-6L683.2,192.9z M329.4,103.5h11.5c6.7,0,12.2-1.4,16.4-4.1c4.2-2.7,7.3-6.2,9.2-10.5c1.9-4.2,2.8-8.8,2.8-13.7
			c0-8.5-2.7-15.2-8.2-20.1c-5.5-4.9-13.2-7.4-23.1-7.4h-24.7v81.5h16V103.5z M329.4,63.3h11.5c4.9,0,8.2,1.3,9.9,4
			c1.7,2.7,2.5,5.5,2.5,8.4c0,1.7-0.4,3.5-1.2,5.3c-0.8,1.8-2.1,3.5-4,4.8c-1.8,1.4-4.3,2-7.3,2h-11.4V63.3z M456.5,88.7
			c0-7.4-1.9-14.3-5.7-20.7c-3.8-6.4-8.9-11.5-15.3-15.3c-6.4-3.8-13.3-5.7-20.8-5.7c-7.5,0-14.4,1.9-20.8,5.7
			c-6.4,3.8-11.4,8.9-15.2,15.3c-3.7,6.4-5.6,13.3-5.6,20.7c0,7.5,1.9,14.5,5.6,20.8c3.7,6.3,8.8,11.4,15.1,15.1
			c6.3,3.7,13.3,5.6,20.8,5.6c7.5,0,14.4-1.9,20.8-5.6c6.4-3.7,11.5-8.8,15.3-15.1C454.6,103.1,456.5,96.2,456.5,88.7z M436.7,101.8
			c-2.1,3.9-5.1,7.1-8.9,9.4s-7.9,3.5-12.5,3.5c-4.7,0-9-1.2-12.9-3.5c-3.9-2.3-6.9-5.5-9.2-9.5c-2.3-4-3.4-8.3-3.4-13.1
			c0-4.9,1.1-9.3,3.3-13.3c2.2-4,5.2-7.1,9-9.5c3.8-2.3,8-3.5,12.7-3.5s8.9,1.2,12.7,3.5c3.8,2.3,6.8,5.5,9,9.5
			c2.2,4,3.3,8.4,3.3,13.3C439.9,93.5,438.8,97.8,436.7,101.8z M508.7,84.6l19.4,48.3l31.4-84.4h-17.3l-13.8,45.3l-18.3-45.3h-15.9
			l6.4,16l-12.4,31.1l-16-47.1h-18.8l32.8,84.7L508.7,84.6z M625.2,113.8h-41.1V96.2h35V80.7h-35V63.3h39.5V47.8H568v81.5h57.1
			V113.8z M680.2,129.3h18.7l-18.9-29.6c4.4-2.5,7.6-6,9.7-10.3c2.1-4.4,3.2-9.1,3.2-14.1c0-8.5-2.8-15.2-8.4-20.1
			c-5.6-4.9-13.4-7.4-23.5-7.4h-24.7v81.5h16v-25.9H663L680.2,129.3z M652.3,63.3h11.5c4.9,0,8.2,1.3,9.9,4c1.7,2.7,2.5,5.5,2.5,8.5
			c0,3-1,5.7-3,8.2c-2,2.5-5.2,3.8-9.5,3.8h-11.4V63.3z M90.8,128.2L54.1,43.6h-0.9l-36.7,84.6h15.8l6.6-15.9h27l6.3,15.9H90.8z
			 M44.6,98.8L52.8,79l7.8,19.8H44.6z M153,121.6l-6.6-14.4c-1.8,1.8-4.4,3.3-7.5,4.6c-3.2,1.3-6.8,1.9-10.7,1.9
			c-4.9,0-9.3-1.1-12.9-3.3c-3.7-2.2-6.5-5.3-8.5-9.2c-2-3.9-3-8.5-3-13.8c0-4.8,1.1-9.2,3.2-13.1c2.1-3.9,5-7.1,8.6-9.4
			c3.6-2.3,7.5-3.4,11.6-3.4c6.1,0,12.1,2.2,17.9,6.6l6.3-15.2c-3.2-2-6.9-3.7-11.1-5c-4.2-1.3-8.8-2-13.7-2
			c-7.8,0-14.7,1.8-20.7,5.4c-6,3.6-10.6,8.6-13.9,15c-3.3,6.4-5,13.7-5,21.9c0,7.5,1.7,14.3,5,20.5c3.3,6.2,8.1,11.2,14.4,14.9
			c6.3,3.7,13.6,5.5,22.1,5.5c5.3,0,10.2-0.8,14.7-2.5C147.6,125,150.9,123.3,153,121.6z"/>
	</g>
</g>
<path class="st1" d="M213,13.6l38.7-0.4l-17.5,34.9l50.2,0l-85.1,106l4.3-66.6h-32.3L213,13.6z"/>
</svg>
