<?xml version="1.0" encoding="utf-8"?>
<!-- Generator: Adobe Illustrator 22.1.0, SVG Export Plug-In . SVG Version: 6.00 Build 0)  -->
<svg version="1.1" xmlns="http://www.w3.org/2000/svg" xmlns:xlink="http://www.w3.org/1999/xlink" x="0px" y="0px"
	 viewBox="0 0 500 500" style="enable-background:new 0 0 500 500;" xml:space="preserve">
<style type="text/css">
	.st0{clip-path:url(#SVGID_2_);}
	.st1{display:none;fill:#FFC40C;}
	.st2{opacity:6.000000e-02;}
	.st3{fill:#F1F2F2;}
	.st4{fill-rule:evenodd;clip-rule:evenodd;fill:#BF9309;}
	.st5{fill-rule:evenodd;clip-rule:evenodd;fill:#806206;}
	.st6{fill-rule:evenodd;clip-rule:evenodd;fill:#42210B;}
</style>
<g id="BACKGROUND">
	<g>
		<defs>
			<rect id="SVGID_1_" width="500" height="500"/>
		</defs>
		<clipPath id="SVGID_2_">
			<use xlink:href="#SVGID_1_"  style="overflow:visible;"/>
		</clipPath>
		<g class="st0">
			<rect class="st1" width="500" height="500"/>
			<g class="st2">
				<polygon class="st3" points="357.8,542 251.5,266.5 339.5,542 				"/>
				<polygon class="st3" points="400.5,542 251.5,266.5 381,542 				"/>
				<polygon class="st3" points="317.7,542 251.5,266.5 300.2,542 				"/>
				<polygon class="st3" points="447.1,542 251.5,266.5 425.6,542 				"/>
				<polygon class="st3" points="499.2,542 251.5,266.5 475,542 				"/>
				<polygon class="st3" points="559.5,542 251.5,266.5 531.2,542 				"/>
				<polygon class="st3" points="163.4,542 251.5,266.5 145.1,542 				"/>
				<polygon class="st3" points="122,542 251.5,266.5 102.4,542 				"/>
				<polygon class="st3" points="279,542 251.5,266.5 261.9,542 				"/>
				<polygon class="st3" points="28,542 251.5,266.5 3.7,542 				"/>
				<polygon class="st3" points="77.3,542 251.5,266.5 55.9,542 				"/>
				<polygon class="st3" points="241,542 251.5,266.5 223.9,542 				"/>
				<polygon class="st3" points="-28.3,542 251.5,266.5 -56.5,542 				"/>
				<polygon class="st3" points="202.8,542 251.5,266.5 185.3,542 				"/>
				<polygon class="st3" points="613.1,542 613.1,528.6 251.5,266.5 597.4,542 				"/>
				<polygon class="st3" points="613.1,216.3 251.5,266.5 613.1,229.6 				"/>
				<polygon class="st3" points="613.1,153.6 251.5,266.5 613.1,168.4 				"/>
				<polygon class="st3" points="613.1,478.5 251.5,266.5 613.1,499.9 				"/>
				<polygon class="st3" points="613.1,118.3 251.5,266.5 613.1,134.5 				"/>
				<polygon class="st3" points="613.1,78.7 251.5,266.5 613.1,97.1 				"/>
				<polygon class="st3" points="613.1,-9 597.4,-9 251.5,266.5 613.1,4.4 				"/>
				<polygon class="st3" points="613.1,33.1 251.5,266.5 613.1,54.5 				"/>
				<polygon class="st3" points="613.1,185.9 251.5,266.5 613.1,199.8 				"/>
				<polygon class="st3" points="613.1,364.6 251.5,266.5 613.1,379.4 				"/>
				<polygon class="st3" points="613.1,333.2 251.5,266.5 613.1,347.1 				"/>
				<polygon class="st3" points="613.1,435.9 251.5,266.5 613.1,454.3 				"/>
				<polygon class="st3" points="613.1,245.6 251.5,266.5 613.1,258.6 				"/>
				<polygon class="st3" points="613.1,303.4 251.5,266.5 613.1,316.7 				"/>
				<polygon class="st3" points="613.1,274.4 251.5,266.5 613.1,287.4 				"/>
				<polygon class="st3" points="613.1,398.5 251.5,266.5 613.1,414.7 				"/>
				<polygon class="st3" points="145.1,-9 251.5,266.5 163.4,-9 				"/>
				<polygon class="st3" points="223.9,-9 251.5,266.5 241,-9 				"/>
				<polygon class="st3" points="185.3,-9 251.5,266.5 202.8,-9 				"/>
				<polygon class="st3" points="102.4,-9 251.5,266.5 122,-9 				"/>
				<polygon class="st3" points="55.9,-9 251.5,266.5 77.3,-9 				"/>
				<polygon class="st3" points="-56.5,-9 251.5,266.5 -28.3,-9 				"/>
				<polygon class="st3" points="3.7,-9 251.5,266.5 28,-9 				"/>
				<polygon class="st3" points="425.6,-9 251.5,266.5 447.1,-9 				"/>
				<polygon class="st3" points="-112,-9 -112,3 251.5,266.5 -94.4,-9 				"/>
				<polygon class="st3" points="475,-9 251.5,266.5 499.2,-9 				"/>
				<polygon class="st3" points="531.2,-9 251.5,266.5 559.5,-9 				"/>
				<polygon class="st3" points="300.2,-9 251.5,266.5 317.7,-9 				"/>
				<polygon class="st3" points="261.9,-9 251.5,266.5 279,-9 				"/>
				<polygon class="st3" points="381,-9 251.5,266.5 400.5,-9 				"/>
				<polygon class="st3" points="339.5,-9 251.5,266.5 357.8,-9 				"/>
				<polygon class="st3" points="-112,258.5 251.5,266.5 -112,245.5 				"/>
				<polygon class="st3" points="-112,380 251.5,266.5 -112,365.1 				"/>
				<polygon class="st3" points="-112,347.5 251.5,266.5 -112,333.6 				"/>
				<polygon class="st3" points="-112,316.9 251.5,266.5 -112,303.6 				"/>
				<polygon class="st3" points="-112,455.3 251.5,266.5 -112,436.8 				"/>
				<polygon class="st3" points="-112,415.5 251.5,266.5 -112,399.2 				"/>
				<polygon class="st3" points="-112,501.1 251.5,266.5 -112,479.6 				"/>
				<polygon class="st3" points="-112,287.5 251.5,266.5 -112,274.5 				"/>
				<polygon class="st3" points="-112,167.9 251.5,266.5 -112,152.9 				"/>
				<polygon class="st3" points="-112,53.4 251.5,266.5 -112,31.9 				"/>
				<polygon class="st3" points="-112,542 -94.4,542 251.5,266.5 -112,530 				"/>
				<polygon class="st3" points="-112,96.2 251.5,266.5 -112,77.7 				"/>
				<polygon class="st3" points="-112,133.8 251.5,266.5 -112,117.5 				"/>
				<polygon class="st3" points="-112,229.4 251.5,266.5 -112,216.1 				"/>
				<polygon class="st3" points="-112,199.4 251.5,266.5 -112,185.5 				"/>
			</g>
			<path class="st4" d="M537.5,331l-0.8-16.6l-3.1-0.3l-0.2,16.8l-3.5-0.2l-0.9-15.8l-3.1-1l-0.5,14.6l-2.4,0.5l-0.1,1.9l-1.9-0.1
				l-1.8,4.6l-7.2,4.2l-0.6-18.5l-5.1-0.6l-0.8-25.1l-3.1-0.6l0.2-6.8l-2.7-0.9l-0.2-3.4l-10.2-14l-10.9-0.2l-8.6,12.1l-0.2,4.5
				l-3,1l0.2,6l-4.7,0.4l0.9,35.2h-3.2l-0.4-19.2l-12.2-0.6l-16.8,0.3l-0.9-5.3l-6.2-0.3l-0.8-4.1l-8,0.1l-0.3,3.2l-4.5-0.3
				l-3.3-0.2l-2.1-2.3l-9.1-1.8c0,0-5.9-0.3-6.9-0.2c-1,0.1-7,2.4-7,2.4l-0.2-31.5l-6.4-1.7l-24.7,0.2l-7.3,1l-0.3,30.6l-1.5-0.1
				l-1-5.8l-10-1.1l-0.3-18.5l-1.7-2.1l-0.6-22.3v21.9l-1.5,2.7v18.2l-7.8-0.3l-6.5,0.2l-1-12.2l-1.6-0.9l-3.3-11.3l-4-0.9
				l-0.9-17.7l-0.2,17.2c0,0-0.5,0.3-1.5,0.6c-1,0.3-3.8,11.1-3.8,11.1l-2.4,0.9l-2.3,28.9l-10.1,0.2v-20.2l-48.7-0.4l-0.4,22.1
				l-9.9,0.4l-1.1,2.3l-16.3,0.7l0.2,15.4h-2.8l-1-67.7l-21.9-1.7l-19.3,1.2l-0.3,42.1l-5.4,0.1l-0.4,6l-12,0.5l-0.4,1.4l-20.8,0.8
				l-0.6,2.7l-16,0.6v22.3l-8.6-0.2c0,0,0.3-1.3-0.1-1.4c-0.4-0.1-0.6-18.3-0.6-18.3s0.9-0.8,0.9-1.1c0-0.4-0.1-0.8-0.3-0.8
				c-0.2-0.1-1-0.2-1-0.2s0.2-1.1,0.1-1.2c-0.1-0.1-0.8-0.5-0.8-0.5s0-18.5,0.1-18.6c0.1-0.1,0.6-0.9,0.5-1.1
				c-0.1-0.2-0.7-0.2-0.7-0.4c0-0.1,0.1-1.1,0.1-1.1s0.6-0.3,0.4-0.5c-0.1-0.1-0.4-0.3-0.4-0.3l0-1.1c0,0,2.8-1.6,2.9-1.8
				c0.1-0.2,0.1-0.4,0.1-0.4l-2.9-0.3c0,0,0.1-1.7,0.1-2c0-0.2,0-1.9,0-1.9h-9.1l-0.1-0.8c0,0-72.2,0.1-72.4,0.2
				c-0.3,0.1-2.1,1.2-2.1,1.2L-3.9,283l-5.8,2.4v79.5H542v-34L537.5,331z"/>
			<g id="XMLID_72_">
				<path class="st5" d="M532.1,383.4l-2.6-31.4l-24.7,0.2l-0.7-24.9l-13.9,0.2l-0.3-9.2l-31.7-6.6l-28.8,3.2l2,40.9l-3.6,0.1
					l-1-6.8l-30.8-0.7l0.3,7.6l-4.5,0.3l0.2,2.8l-3.3,0.1l0.2-15.2l-21.3-1.2l-9.6,1l0.2,12.9l-6,0.3l-0.6,2.5l-3.9,0.2L347,353
					l-30.3,0.2l-0.2-6.4l-4.9-0.1l-0.7-1.8l-4.3-0.2l-6.4,0.4l0.2,1.4l-6-0.1l-9.8,0.7v4l-6,0.2l-0.7-17.7l-19.3-0.6l-9.7,3.2
					l-10.6,0l-3.1,0.7l-20.3-0.2l-1.8,0.8l0.1-3.7c0,0-3.1-0.6-5.8-0.6c-2.6,0-12.2,0.6-12.2,0.6l-0.4,3.4l-1.7,0.5l0.5,16.7
					l-2.5-0.2l-1-1.6l-5.8-0.1l-3.5,2.1l-0.1,1.5l-4.8,0l-1.7-9.7l-0.7,9.5l-1.1,0l-5.8,3.6l-0.7-5.7l-2.8-0.1l-0.2-0.7h-3.7
					l-0.3-3.4l-3.6-0.2l-0.5,2.1l-1.4,0.1l-0.4,2.1l-2.5,0.1l-0.4,6.4h-2.6l-0.1,10.3h-2.4l-0.5-22.1l-6.7,0l-0.5-1.6l-0.9-0.4
					l-14.4,0l-0.3-19.5l-1.2-1.6l-5.8-2.1l-15,0.3l-2.1,1.8l-0.1,20H86.9l-0.2,5.6h-6.1l-0.2-5l-1-0.3l-0.4-1.4l-4.5-0.1l-0.1,1.2
					l-1,0.1c0,0,0,2.1,0,2.4c0,0.3-8.7,0.2-8.7,0.2l-0.5,7.4l-4.1,0.1l-0.1,4.1l-0.9,0l-0.4,3l-2.7,0.1l-0.5,0.8l-2.8,0l0-0.8
					c0,0-3.2,0.1-3.4,0.1c-0.2,0-0.4-1.4-0.4-1.4l-2.1-0.2l-0.2-6.3l-3.8-0.6l-15,0.3l-0.3-9.3l-1.1-0.4l-0.1-6.6l-0.7-0.6l0.1-3.9
					l-3.1-1.2c0,0,0.4-8.2-0.5-9.5c-0.9-1.3-1.8-1.1-1.8-1.1s-0.2-0.3-0.2-1.2c0-0.8-0.9-2.8-0.9-2.8s0-1.1-0.2-2.2
					c-0.2-1-1.2-1.8-1.2-1.8s-0.2-0.8-0.6-1.9c-0.3-1.1-2.2-1.9-2.2-1.9s0.1-0.6-0.2-1.6c-0.3-0.9-1.4-1.6-1.4-1.6s0.1-0.8-0.1-1.6
					c-0.2-0.8-1.2-2-1.2-2l-1.8-15.5c0,0-0.3,10.6-0.6,12.2c-0.2,1.5-0.1,3.3-0.1,3.3s-0.3,0.1-0.7,0.9c-0.4,0.7-0.3,2.4-0.3,2.4
					s-0.5,0.3-0.8,0.9c-0.2,0.6-0.4,2.5-0.4,2.5S6.6,311,6,311.8c-0.6,0.8-0.5,2.6-0.5,2.6s-0.5,0.3-1,0.8c-0.5,0.5-0.4,2.7-0.4,2.7
					s-0.1,0.1-0.6,0.5c-0.5,0.4-0.2,2.8-0.4,2.9c-0.2,0.1-0.3,2-0.3,2s-0.6,0.4-0.7,0.6c-0.2,0.2,0.2,9.7,0.2,9.7l-4.5,0.5l0.5,19.5
					l-3.3,0v81.1h564v-51L532.1,383.4z"/>
			</g>
		</g>
	</g>
</g>
<g id="OBJECTS">
	<path class="st6" d="M344.4,300.9c0.5-2.4,1-5,1-5l0.6,0.3c0.7,1.2,0.9,3.1,1.3,3.2c0.4,0.1,1.3-0.1,1.3-0.1s0,0.6,1.6,3.3
		c1.5,2.7,3.9,4.8,4.5,6.1c0.6,1.2,0.6,1.9,0.6,1.9s-1,1.9-3.1,5c-2.1,3.1-1.2,3.8-2.5,6c-1.4,2.1-2.7,3.3-2.7,3.3s-0.7-0.5-1.1-0.2
		c-0.5,0.3-1.5,1-1.5,1s-1.8-0.6-2.7-1.1c-0.9-0.5-2.2-1.8-1.9-2.1c0.3-0.3,0.9-12.4,1.9-14.8C342.6,304.9,343.9,303.3,344.4,300.9
		L344.4,300.9z M298.7,326.9L298.7,326.9c-0.1-0.7-0.1-1.1-0.1-1.1c0-0.1,0-0.1,0-0.2c0.2,0.1,0.5,0.3,0.9,0.5l0,0
		C299,326.1,298.8,326.5,298.7,326.9L298.7,326.9z M298.9,324.3L298.9,324.3c0.1-0.2,0.3-0.3,0.3-0.4c0.2-0.2,0.4-0.4,0.6-0.9
		c0.2-0.5,0.2-0.7,0.1-1.4c-0.1-0.5-0.6-2-1.3-2c0,0-0.1,1.7-0.3,2c-0.1,0.3-0.3,0.5-0.7,0.6c-0.4,0.1-1,0.1-1.3,0
		c-0.3-0.1-0.7-0.4-0.8-0.6c-0.1-0.2,0.1-2.4,0.1-2.5c0-0.1,0-0.1,0-0.1c-0.7-0.2-2.1,1.9-2.1,3c0,0.3,0.1,0.6,0.2,0.8
		c-0.2,0-0.4,0-0.5,0.1c-0.2,0.1-0.2,0.1-0.5,0.4c-0.3,0.3-0.5,0.4-0.9,0.6c-0.5,0.2-0.4,0.2-1,0.1c-0.5,0-0.8-0.2-0.9-0.2
		c-0.1,0-1.4,0.2-1.5,0.2c-0.1,0,0,1.2,0.1,1.6c0.1,0.4,0.4,1.3,0.4,1.4c0.1,0.1,0.1,0.1,0.1,0.1s1.5-0.2,1.5-0.3
		c0.1,0,0.7-0.6,0.8-0.6c0.2-0.1,0.5-0.2,0.9-0.2c0.5,0,0.8,0.1,1,0.3c0.2,0.1,0.3,0.4,0.4,0.6c-0.4-0.3-0.7-0.5-1-0.4
		c0,0,0.5,1.6,0.5,1.9c0,0.4-0.1,0.6-0.5,0.8c-0.3,0.2-0.9,0.5-1.3,0.5c-0.4,0-0.8-0.1-1-0.3c-0.2-0.2-0.8-2.3-0.8-2.3
		c0-0.1,0-0.1,0-0.1c-0.7,0.1-1.2,2.6-0.8,3.6c0.6,1.4,1.7,1.2,2.5,1.9c0.4,0.3,0.5,0.4,1,1.2c0.2,0.3,0.9,1.7,2,3.7
		c0,0.2,0,0.4,0,0.6c-0.2,0.9,0.1,2-0.2,4c-0.3,2-0.9,6.9-0.7,7.3c0.1,0.1,0.9,0.6,2,1.2c0.1,1.2,0.1,2.5,0.1,2.7
		c0,0.2,0.3,0.5,0.4,0.6c0.1,0.1,0.8,0.1,1.5,0c0.7-0.1,0.9-0.1,1.1-0.2c0.2-0.2,0.3-0.4,0.3-0.5c0,0-0.1-0.4-0.1-1
		c0.4,0.2,0.7,0.3,0.7,0.3s0,0.2-0.1,0.9c-0.1,0.7,0,5.1,0,5.1s-0.3,0.8-0.3,2.6c0.1,1.8-0.2,9.1-0.4,14.1c-0.2,5,1.3,11.1,1.8,13.6
		c0.5,2.5,0.8,4.1,0.8,6.4c0,2.3-0.8,2.6-1.1,6.4c-0.4,3.8,3.5,11,3.5,11s-0.1,3.2-0.6,3.3c-0.4,0-1.2,0.6-1.2,2.5
		c0,1.9,0.9,8.2,0.9,8.2s-0.2,0.3-0.6,1.4c-0.4,1.2,0.2,0.7,0.1,1.2c0,0.5-0.4,1.3-1.3,2.2c-0.9,0.9-2.6,2.3-3,2.8
		c-0.4,0.4-0.9,1.4-0.9,1.4s-0.1,0.1-0.3,0.2c-0.2,0.1-0.5,1.4-0.6,1.9c-0.1,0.6,0.1,1,0.4,1.3c0.3,0.3,4.9,1.8,7.5,1.9
		c2.7,0,4.1-0.5,4.1-0.5s0.4-0.1,0.8-0.7c0.4-0.6,0.9-1.6,1.2-1.7c0.3-0.1,0.7,0,1.1,0.1c0.3,0.1,3.2-0.4,3.7-0.8
		c0.5-0.4,0.3-0.5,0.2-1.8c-0.1-1.2-0.2-3.1-0.2-3.1s0.2-3.1,0.1-3.6c-0.1-0.4,0.2-1.8,0.8-3.8c0.5-2.1,0.8-5.6,0.6-8.2
		c-0.2-2.6-1.5-4.5-1.6-5.1c-0.1-0.5-0.3-1.4,0.8-5.5c1.1-4-0.4-15.1-0.4-15.8c0.1-0.7,0.7-2.3,0.4-3.8c-0.3-1.5-0.5-3.8-0.3-4.6
		c0.2-0.8,1.7-2.8,2-4.7c0.4-1.9,0.4-2.8,0.3-5.2c-0.1-2.5,1.1-8.2,1.2-10c0.2-1.8,0.5-11.2,0.5-11.2s1.2,12.8,0.9,16.4
		c-0.3,3.7,0.4,7.4,0.8,9.4c0.4,2,0.9,3.8,1.4,4.7c0.5,0.9,0.3,2.6-0.1,5.3c-0.4,2.7,0.9,8.7,0.9,8.7s1.7,3,1.6,3.8
		c-0.1,0.9,0.5,2.7,0.6,5.1c0.1,2.5-1.5,6.7-2.7,8.5c-1.2,1.8-1.3,4.6-1,6.9c0.3,2.3,1.7,7.1,1.7,7.1l-0.1,0.7
		c-0.1,0.7-0.8,4.7-1.1,5.2c-0.3,0.5-0.6,3.9-0.6,4.1s0.5,0.9,2.3,1.9c1.8,1,2.4,0.2,2.5,0.6c0.2,0.3-0.1,1.9,0.1,2.8
		c0.2,0.9,1.4,1.4,3.3,1.6c1.9,0.2,8.6,0.2,8.8-0.2c0.3-0.4,0.3-2.8-0.1-4c-0.4-1.2-1.2-1.5-1.9-2.9c-0.7-1.4-0.8-6-0.8-6
		s0.5-0.7,1.1-1.9c0.6-1.2,0-1.9,0.1-3.1c0.1-1.1,1.1-2,1.7-3.4c0.7-1.3,0.4-4.4-0.5-7.2c-0.9-2.8-1.1-6.9-1.1-6.9s1.2-2.4,2.7-7.1
		c1.5-4.7,1.4-9.5,1.4-9.5s1.8-4.3,1.5-5.5c-0.3-1.2-0.9-2.2-0.7-3.3c0.2-1.1,0.2-2.8,0.4-4.7c0.2-1.9,0.3-6.9,0.3-11.1
		c0-4.2-2-13.5-2-13.5s5.6-2.2,6.1-2.9c0.5-0.8-0.3-5.1-0.3-5.1s2-1.3,2.2-1.3c0.2,0-1.5-6.4-1.5-6.4s0.2-0.2,0.6-0.7
		c0.4-0.5,0.5-1.2,0.5-1.5c0-0.2,0.1-0.4,0.4-0.8c0.3-0.3,2.3-4.1,2.3-4.1s3.4-4.1,6.4-8c3-3.9,5.9-10.3,6.2-11c0.3-0.7-0.1-3-1-6.9
		c-1-3.9-4.3-10.2-4.3-10.2s0.1-0.4,0.1-0.6c0-0.2-1-1.3-2.1-3.1c-1.1-1.7-1.8-5-3-7.7c-1.2-2.7-3.8-5-4.7-6.1
		c-0.9-1.1-4.4-2.7-4.8-2.9c-0.4-0.2-0.5-0.2-1.1-0.8c-0.6-0.6-2.1-3-2.5-3.1c-0.5-0.1-1.9,0-2.3,0.2c-0.4,0.2-1.2,0.3-1.8,0.2
		c-0.6-0.1-3.2-2-3.3-2.4c0-0.4-0.1-4.4-0.1-4.4s0.3-0.6,0.5-1.5c0.3-0.9,0.5-3.5,0.5-3.5s1.1-1,1.4-2.1c0.3-1.2,0.2-3.8,0.2-3.8
		s0.2-0.1,0.4-0.8c0.2-0.7,0.6-1.3,1-1.9c0.4-0.6,0.2-1,0-1.5c-0.1-0.6-0.6-0.8-0.8-1c-0.2-0.3-0.9-4.9-0.9-4.9l-0.8-0.4
		c0,0-0.2-0.3-1.3-1.4c-1.1-1.1-3.2-2.9-6.3-3.5c-3.1-0.6-5.4-0.3-8.9,1.9c-3.5,2.2-4.2,5.1-4.2,5.1s-1.1-0.9-1.9-1.9
		c-0.8-1-1.1-0.9-1.9-0.8c-0.9,0.2-1.3,1.1-1.9,1.8c-0.6,0.7-0.4,0.3-1.2,1c-0.8,0.7-2.9,3.8-3,4.2c-0.2,0.4-1.9,0.8-1.9,0.8
		l-0.2,0.5c0,0-0.3,0.5-0.8,0.8c-0.6,0.4-2.4,2.1-2.7,2.5l0.2,0.5c0,0-0.3,1.3-0.7,1.8c-0.4,0.5-6.1,6.1-10.4,11.2
		c-4.4,5.1-5.5,8.1-5.3,9.5c0.2,1.3,1.4,3.3,5.6,5.4c4.2,2,9.2,3.2,9.2,3.2s0.9,0.7,1.2,1c0.3,0.3,1.8,0.4,2.3,0.1
		c0.6-0.3,1.1-0.9,1.9-0.8c0.7,0,0.8,0.2,1.2,1.2c0.3,1,2.7,6.3,2.9,7c0.2,0.7,0.3,2.2,0.1,3.8c-0.2,1.6-0.8,3.1-0.9,6.3
		c0,3.2,0,8,0,8s-0.2,1.1-0.3,1.3c-0.1,0.2-0.2,2.9-0.1,3.4c0,0.5-0.4,0.4-1.3,0.4c-0.8,0-3.1,7-3.7,8.7
		C299.7,325,299.2,324.6,298.9,324.3L298.9,324.3z M307.7,271L307.7,271c-0.7,0.1-5.9,0.6-6.3,0.5c-0.4-0.1-0.8-0.1-1.1,0.1
		c-0.3,0.2-0.7,0.4-0.9,0.5c-0.2,0.1-0.3,0.1-0.6,0.1c-0.3,0-2.3-0.1-2.3-0.1s1-1.8,2-4.1c1-2.4,2.8-5.3,3.9-6.5
		c1-1.2,1.1-1.3,1.1-1.3s2.1,0.6,2.5,0.9c0.4,0.3,0.8,0.4,1.5-0.5c0.7-0.9,1.9-2.9,2.2-2.9c0.3,0,1.2-0.2,1.9-0.3
		c0.7-0.1,3.5-2.2,3.5-2.2l0.3-0.2c0,0,0.1,1.5,0.7,2.8c0.6,1.3,0.7,1.9,1.2,2.2c0.5,0.3,0.9,0.3,0.9,0.3s0.2,1.7,0.6,2.6
		c0.4,1,0.8,1.4,0.8,1.4s0,2.5-0.1,3.2c-0.1,0.7-0.4,1.3-0.4,1.3c-0.3,0.1-0.6,0.5-1.1,0.6c-0.5,0.1-1,0.2-1.2,0.6
		c-0.3,0.5-0.5,0.8-0.5,0.8s-3.9-0.8-4.3-0.5c-0.5,0.4-0.6,0.6-0.6,0.6s-0.3-0.3-1.2-0.3C308.9,270.9,308.5,270.9,307.7,271z"/>
	<path class="st6" d="M223.9,331c-0.8,1.8-1.5,4.2-1.7,5c-0.3,0.8-0.4,1.7-0.5,2.5c-0.1,0.8-0.4,1.2-0.4,1.5c0,0.4-0.7-0.2-0.7-0.2
		c-0.4,0-1.2,0.1-1.1-0.2c0-0.4,0-3.5,0.6-4.6c0.6-1.1,1.5-2.4,1.5-2.4s0-2.6,0.7-3.8c0.7-1.2,2.5-3.8,2.6-4.7
		c0.2-0.8,0.8-2.1,0.9-1.6c0.1,0.5,0,2.9-0.5,4.5C224.8,328.7,224.7,329.2,223.9,331L223.9,331z M268.2,330.6L268.2,330.6
		c0,0-0.1-0.1-0.1-0.2c0-0.1,0.1-0.7,0.1-0.7s-0.2,0-0.2-0.1c-0.1-0.1-0.2-0.9-0.4-1.2c-0.2-0.3-0.1-0.4-0.6-0.5
		c-0.1,0-0.2,0-0.3-0.1c0.1,0.4,0.2,0.9,0.2,0.9s0.6,0.3,0.7,0.6c0.1,0.4,0.2,4.7,0.1,4.8c0,0.1-0.5,0.1-0.5,0.1l0,0.7
		c0,0,0.1,0.2,0.5,1.1c0,0,0,0,0,0C267.9,333.6,268.2,330.6,268.2,330.6L268.2,330.6z M264.6,326.9L264.6,326.9c-0.1,0-0.2,0-0.2,0
		c-0.2,0-0.4,0-0.4,0l0-1.1c0,0,1.4-1,2.4-2.6c1-1.6,2.1-2.8,1.8-4.6c-0.4-1.8-0.2-2.9,0.1-3.4c0.3-0.5-0.7-8.4,1.1-12.8
		c1.8-4.5,2.1-9.5,2.1-9.1c0,0.4,2.9,5.5,3.9,5.6c1,0.2-1.3-2.6,3,1.8c4.3,4.5,7.5,5.6,9.6,5.8c2.1,0.2,4.2-1.1,5.3-2.8
		c1.1-1.7-0.1-10-0.8-12.7c-0.7-2.6-1.5-6.9-2.2-7.8c-0.7-1-1.3-1.8-1.7-2.3c-0.4-0.5-0.7-1.3-1.1-1.5c-0.4-0.2-1.9-6-2.2-6.5
		c-0.3-0.5-0.8-0.7-0.8-0.7s-0.4-6.6-0.1-7.5c0.3-0.9,1-3.2,1.4-4.7c0.4-1.5,1.5-4.5,0.8-4.7c-0.6-0.2-0.9,0-1.4,0.6
		c-0.5,0.6-1,3.3-1.4,4c-0.4,0.8-0.9,1.4-0.9,1.4s0-2.4-0.3-3.5c-0.2-1.1-1.7-5.2-2-5.6c-0.2-0.4-0.6-0.2-0.9,0
		c-0.3,0.2-0.5,0.9-0.4,1.8c0,0.9,0.4,1.7,0.7,2.4c0.2,0.7,0.7,2.1,0.6,2.8c-0.1,0.4-0.3,1.1-0.4,1.5c-0.2-0.7-1.5-2.9-1.8-3.5
		c-0.3-0.7-2.5-4.5-2.7-4.8c-0.1-0.2-0.6-0.2-0.9,0c-0.3,0.3-0.4,1.2-0.2,2.2c0.2,1,0.9,1.8,0.9,1.9c0,0.1,0.9,2.3,1,2.7
		c0.1,0.4,0.7,1.4,0.7,2.1c0,0.7-0.2,1.2-0.2,1.2s-0.2,0-0.3-0.3c-0.2-0.3-0.9-1.4-1.7-1.5c-0.7-0.1-3,0.8-3.4,0.9
		c-0.4,0.1-1.1,0.9-1.1,0.9s-0.6,0-0.7,0.5c-0.2,0.4,0.3,0.5,0.2,1.5c-0.1,1-0.1,2,0.2,2.7c0.2,0.7,2,3,2.9,3.5
		c0.9,0.5,1.3,1,1.4,1.2c0.2,0.2,1.6,1.5,2.2,2.3c0.6,0.8,0.8,1.1,0.8,1.3c0,0.2-0.1,0.4,0.2,1.8c0.3,1.5,0.8,1.1,0.8,2
		c0,0.9-0.3,1-0.3,1s-1.3-3.2-2.7-3.8c-1.4-0.7-2.5-2.9-3.7-3.2c-1.2-0.3-2.5-0.7-4.5-1.1c-2-0.4-3.8-1.8-5.2-2.3
		c-1.4-0.5-1.8-0.7-1.8-0.7s-1.3-2.9-1.6-3.8c-0.3-0.8-0.8-1.3-0.8-1.3c-0.4-0.3-1.2-0.6-1.2-0.6l0.2-1.6c0,0,1.5-1.6,2-2.6
		c0.5-1.1,0.6-1.8,0.6-1.8s0.1,0.2,0.9,0.2c0.7,0,1.1-1.4,1.6-2.4c0.4-1,0.5-1.1,0.5-1.1s0.4-1.5,0.4-2.5c0-0.2,0-0.3,0-0.5
		c1-0.2,1.5-0.4,1.7-0.6c0.3-0.4,0.8-3,0.8-3s-0.6-0.7-0.7-1c-0.1-0.2-0.3-0.8-0.2-1c0.1-0.3,0.5-3.3-0.3-5.5
		c-0.7-2.1-2.2-4.1-3.3-4.8c-1.1-0.7-2.5-1.6-2.7-1.9c-0.2-0.3,0-0.9-1.7-1.2c-1.7-0.3-2.2-0.1-2.2-0.1c-0.2,0.1-0.4,0.6-0.9,0.8
		c-0.4,0.2-2.8,0.5-3.7,1c-1,0.5-3.5,2.4-4.2,3.6c-0.7,1.2-2,4.8-2,4.8s-0.5,0.1-0.6,0.3c-0.1,0.2-0.1,0.4-0.1,0.4s-0.5,0-0.6,0.3
		c-0.1,0.3-0.5,2.5-0.4,2.8c0.1,0.1,0.4,0.6,0.9,1.1c-0.1,0.3-0.1,0.4-0.1,0.4s-0.3-0.1-0.6,0.2c-0.4,0.3-0.5,3.2-0.4,4.8
		c0.1,1.6,0.1,1.8,0.5,2.1c0.4,0.3,1.1,0.3,1.1,0.3s0,2,0.4,3.1c0.4,1,0.5,1.6,0.5,1.6l-0.5,3.7c0,0-0.7-0.1-2.3,0.8
		c-1.6,0.8-1.7,2.6-2.2,3.2c-0.5,0.5-1.1,0.9-1.1,0.9l-0.7,0.8c0,0-8.7,2.9-10.4,3.7c-1.7,0.8-1.6,0.4-2.6,1.8
		c-1.1,1.4-1.3,2.7-3.8,9.5c-2.5,6.8-1.1,9.1-1.8,11.4c-0.6,2.3-1.1,4.8-1.1,4.8s-0.4,4.5-1.3,8.9c-0.9,4.4-0.6,5.5-0.8,6.5
		c-0.2,1-1.8,5.1-2.1,9c-0.3,3.9-0.6,3.2-0.3,4.5c0.3,1.3,0.8,1.1,0.6,2.8c-0.3,1.7,0,1.9-0.3,2.4c-0.2,0.5-1.2,6.1-1,7.2
		c0.3,1.1,0.5,1.3,0.5,1.3l-0.6,2.5c0,0-18,18-18.5,18.6c-0.4,0.5-0.9,1.5-0.9,2.2c0,0.7,0.6,1.6,0.6,1.6l0,0.7l0.4,0.3
		c0,0,0.6,1.4,0.9,1.5c0.3,0.1,1.5,19.7,1.7,19.8c0.2,0.1,4.7,0.5,4.9,0.4c0.2-0.1,0.5-0.6,0.5-0.6l10.9,1.3l0.1,0.8
		c0,0,4,0.4,4.5,0.4c0.5-0.1,2.4-2.7,2.4-2.9c0-0.2,0.2-2.9,0.2-2.9l2.1-2.6c0,0,0.8,0.3,1.1,0.1c0.3-0.2,4.5-5.9,4.5-5.9
		s2.9,9,2.6,10.7c-0.4,1.7-1.2,2.2-1.3,4.4c-0.1,2.2-0.4,2.8,0.1,3.9c0.5,1.1,1.1,1.1,1.2,2.5c0.1,1.5,1.5,7.8,1,10.2
		c-0.5,2.4-0.4,4.8,0,5.6c0.4,0.8,1.9,1.4,2.5,2.3c0.5,0.9,0.9,1.9,0.9,1.9s-0.1,0.4-0.5,1.2c-0.4,0.9-0.4,1.2-0.4,1.8
		c0,0.5,0.2,1.1,0.2,1.1s-0.3,1.3-0.4,1.5c-0.2,0.3-2.7,2.8-3,3.2c-0.3,0.4-0.2,0.7-0.2,0.7s-4.4,2.7-5.1,3.8
		c-0.7,1.1-0.7,2.3-0.7,2.3s-0.5,0.4-0.7,1c-0.2,0.6-0.1,1.3,0,1.7c0.2,0.4,0.7,0.9,1,1.1c0.3,0.3,5.6,1.3,8.4,0.8
		c2.8-0.5,5.8-3,6.1-3.5c0.3-0.5,0.4-1.5,0.5-1.7c0.2-0.2,2.4-1.5,3.1-1.6c0.7-0.1,1.3,0.5,1.3,0.5s2.9-1.5,3.7-2.1
		c0.7-0.6,0.4-4.4,0.4-4.8c-0.1-0.4-0.3-0.7-0.3-0.7s0.2-0.8,0.3-2.8c0.1-2-0.3-3.7-0.3-3.7s0.5-1.5,0.6-2.1
		c0.1-0.6,0.2-1.2,0.3-1.9c0.1-0.7-0.7-4.7-1.2-6.4c-0.5-1.8-1-2.1-1-2.6c0-0.5-0.8-12.2-1.2-14.3c-0.4-2-1.1-2.8-1.1-2.8v-4.5
		c0-1.1-0.2-1.8,0-3c0.2-1.2,0.4-8,0.5-10.5c0.2-2.4-0.1-3.8-0.1-3.8s0.6-6.8,0.8-7.7c0.2-0.9,0.4-1.1,0.4-1.1s1.3,6.2,1.2,8.3
		c-0.1,2-0.4,5.6,0,7.7c0.4,2.1,0.7,2.2,1.1,3.6c0.4,1.4,0.1,1.8,0.6,3.9c0.5,2,0.7,7.5,1.4,8.9c0.7,1.4,2.3,2.2,2.4,3
		c0,0.9-0.5,11.3-0.8,16c-0.4,4.7,0.5,5.4,1.1,6.8c0.6,1.4,1,1.9,0.6,2.7c-0.4,0.8,0.4,0.1-0.8,1.2c-1.1,1.1-1.8,2.9-1.8,4.1
		c0.1,1.3,1.2,2.5,1.1,3.6c-0.1,1.1-0.4,1.2-0.3,2c0.1,0.8,0.8,2.2,1.1,2.8c0.4,0.6,0.4,1.2,0.4,1.2s-0.5,4.2-0.3,4.4
		c0.2,0.2,0.7,1.3,1.2,1.6c0.6,0.3,1.3,0.5,1.3,0.5s0.2,2.5,0.2,2.9c0,0.4-0.5,1.6-0.5,2.2c0,0.6,0.7,2.2,1.9,2.9
		c1.2,0.7,8.7,0.5,9.8,0c1.1-0.5,1.9-2.7,2-3.1c0.1-0.4-0.1-2.1-0.4-2.4c-0.3-0.3-0.4-0.7-0.4-0.7s0-1.3-0.7-2.9
		c-0.7-1.6-1.8-2.1-2.2-3.8c-0.4-1.7-1-3.1-1-3.1s0.9-5.5,1.3-6.9c0.4-1.4,1-1.7,1-3.3c0-1.7-1.1-2.6-0.9-3.5c0.2-1,1.1-3,1.6-4.2
		c0.4-1.2,1-1.8,1-3.2c0-1.3-0.2-3.4-0.1-3.9c0.1-0.4,1.8-7.3,1.1-9.1c-0.7-1.8-1.5-2.8-1.5-4c0-1.1-0.1-1.6,0.2-2.8
		c0.3-1.2-0.4-3.7-0.8-4.7c-0.4-1,0.4-3,0.6-5c0.2-1.9,0.1-2.4,0.1-2.9c0-0.5,0.7-2.1,0.6-2.3c-0.1-0.2,0.1-0.6,0.1-0.6
		s-0.1-12-0.4-18.3c0.1-0.1,0.1-0.2,0.1-0.3c0-0.2,0.2-3.1,0.3-4.4c0.1-1.3,0.9-7.1,0.9-8.3c0.1-1.2,0.1-5.8,0.1-5.9
		c0,0-0.3-0.1-0.3-0.1l1-8.8c0,0,0,0,0.1,0c0.1,0,0.1-0.1,0.1-0.1c0,0,0.2-0.9,0.2-0.9s0.1,0,0.1,0c0,0,0.1,0,0.1-0.1
		c0.1-0.1,0.4-0.8,0.7-0.9c0.3-0.2,0.6-0.3,1.1-0.3c0.5,0,0.8,0.1,1,0.2c0.2,0.1,0.8,0.7,0.9,0.7c0.1,0.1,1.7,0.3,1.7,0.3
		s0,0,0.1-0.1c0.1-0.1,0.4-1.1,0.5-1.5c0.1-0.4,0.2-1.7,0.1-1.7c-0.1,0-1.6-0.3-1.7-0.3c-0.1,0-0.4,0.2-1,0.2c-0.6,0-0.6,0.1-1-0.2
		c-0.5-0.2-0.7-0.4-1-0.7c-0.3-0.3-0.3-0.3-0.5-0.4c-0.3-0.1-0.9-0.2-1.9-0.2c-1.1,0-1,0-1.8,0.3c-0.9,0.3-1.6,0.6-2.3,1.1
		C265.1,326.4,264.9,326.6,264.6,326.9L264.6,326.9z M280.1,260.8L280.1,260.8c0,0.1,0,0.2,0,0.2C280,261.1,280,261,280.1,260.8z"/>
	<path class="st6" d="M167.3,265.3c-0.3,0-1.1,0.7-2.1,2.3c-0.9,1.6-1.4,2.4-1.4,2.4l-1.3,0c0,0-0.5-1-0.8-0.8
		c-0.3,0.2-0.3,0.2-0.6,0.4c-0.2,0.2-0.9,0.5-0.9,0.5s-0.7-0.9-1.6-0.7c-0.9,0.2-2.2,0.6-2.4,0.6c-0.2,0,0.6-0.9-1.3-0.1
		c-1.9,0.9-5.1,1.2-6.5,1.6c-1.4,0.4-2.4,0.9-2.8,0.8c-0.4-0.1-0.9,0-2.4-0.3c-1.5-0.3-0.8-0.4-2.1-0.5c-1.3-0.1-1.9,0.3-3.8,0.8
		c-1.9,0.5-2.2,0.9-2.2,0.9c0,0.1-0.1,0.2-0.2,0.2c-0.1,0-1.4-0.1-1.4-0.1s0.7-5.4,0.7-8.2c0-2.8,1.9-8.9,3-10.5
		c1.1-1.7,1.9-2.5,2.2-2.7c0.3-0.2,0.4-0.3,0.8-0.3c0.3,0,1.3,0.4,3.5,0c2.2-0.5,3.1-1,3.3-1.1c0.2-0.1,1-0.1,1.5-0.1
		c0.5,0.1,0.6,0.3,1.3-0.1c0.7-0.4,1.4-1.7,1.3-2.1c-0.2-0.4-0.8-0.7-1.2-0.7c-0.4,0-0.3,0-0.3,0s0.5-0.8,0.2-1.3
		c-0.3-0.5-4.4-3.8-5-4c-0.6-0.1-0.6,0.3-0.8,0.3c-0.2,0-0.5-0.2-0.9,0.2c-0.4,0.4-0.5,0.6-0.8,0.8c-0.3,0.2-0.2,0-0.7,0.5
		c-0.5,0.4-5.1,2.6-6.3,4.2c-1.2,1.5-1.6,2.9-1.7,3.6c-0.1,0.7-8.9,15-10.5,18.8c-1.6,3.8-2.7,6.8-2.7,8.1c-0.1,1.3,0.9,2.4,2.3,3
		c1.4,0.6,3.7,1.3,5.9,1.7c2.2,0.3,3.7,0.6,5.3,1.2c1.6,0.6,3.1,0.7,3.1,0.7s0,0.4,0.5,0.5c0.5,0.1,0.6,0.4,1.5,0.3
		c0.9,0,1.1-0.3,2,0c1,0.2,0.9,0.3,1.8,0.2c0.9-0.1,3.3,0.8,4.5,2.1c1.2,1.3,7.8,28.7,8.2,30.5c0.3,1.8,0.5,3.1,0.3,3.7
		c-0.2,0.6-0.4,1.1-0.7,1.8c-0.3,0.7-0.1,0.3-0.4,1c-0.1-0.1-0.2-0.2-0.3-0.2c-0.7-0.5-1.5-0.9-2.4-1.2c-0.9-0.3-0.8-0.4-1.9-0.4
		c-1.1,0-1.7,0-2,0.1c-0.3,0.1-0.3,0.1-0.6,0.4c-0.3,0.3-0.5,0.5-1,0.7c-0.5,0.2-0.5,0.2-1.1,0.1c-0.6,0-0.9-0.3-1-0.3
		c-0.1,0-1.6,0.2-1.7,0.3c-0.1,0,0,1.3,0.1,1.8c0.1,0.5,0.4,1.5,0.5,1.6c0.1,0.1,0.1,0.1,0.1,0.1s1.6-0.3,1.7-0.3
		c0.1,0,0.7-0.6,0.9-0.7c0.2-0.1,0.5-0.2,1-0.2c0.5,0,0.8,0.1,1.1,0.3c0.3,0.2,0.6,0.9,0.6,1c0.1,0.1,0.1,0.1,0.1,0.1
		c0,0,0.1,0,0.1,0s0.1,0.9,0.2,0.9c0,0,0,0.1,0.1,0.1c0.1,0,0.1,0,0.1,0l0.3,3c-0.2,0.1-0.5,0.3-0.7,0.8c-0.5,1.1-1,5.4-1.2,5.6
		c-0.2,0.2-0.4,0.2-0.6,1c-0.2,0.8-1.1,0.8-1.2,1.7c0,0.9,0.4,2.5,1.1,3.2c0.6,0.7,2.7,2.2,2.7,2.2s-1.5,13.4-2.4,17.3
		c-0.9,4,0,0.9-0.8,6c-0.9,5.1-1,5-1.5,7.4c-0.5,2.3-0.6,2.1-0.7,3.9c-0.1,1.8,0.3,1.8,0.3,2.9c0,1.1-1.5,4.5-2.3,7
		c-0.8,2.5-0.7,6.8-1,8c-0.3,1.2-0.7,5.1-0.8,8.1c-0.1,3,0.6,3.5-0.5,6.2c-1.1,2.7-1,1-1.8,2.8c-0.8,1.7-1.2,0.8-1.8,3
		c-0.6,2.2-0.8,2.7-0.8,4c0,1.4,0.7,1.2,0.6,2c-0.1,0.8-0.3,0.9-0.4,1.5c0,0.6,0,1.2-0.5,1.8c-0.4,0.6-1.7,2.9-2.2,3.9
		c-0.5,1-0.3,1.7-0.4,2c-0.1,0.2-0.4,0.7-0.4,1.1c0,0.4,0.4,0.8,0.4,0.8s0.1,0.2,0.4,0.4c0.3,0.1,7.6,0.3,9.2,0
		c1.6-0.4,2.6-1.9,2.6-2.3c0-0.5,0.3-1.8,0.3-1.8s0.6-0.4,1-0.5c0.4-0.1,0.5,0.3,0.8,0.1c0.3-0.2,2.6-0.8,2.9-1.7
		c0.2-0.9-0.3-2.3-0.2-2.6c0.1-0.3,0-0.5,0.1-0.9c0.1-0.3,0.3-1.7,0.3-1.7s1.8-1.2,2.3-3.5c0.5-2.3,0.4-4.4,0.5-6
		c0.1-1.6,0.1-2.4,0.7-3.6c0.5-1.2,0.6-1.5,0.6-2.3c0-0.8,2-4.9,2.1-10.9c0.2-6-0.7-5.8,0-7.7c0.7-2,1.5-3.3,2.2-5.3
		c0.7-2.1,1.5-4.9,1.8-6.5c0.3-1.6,5.2-12.5,7.1-17.6c1.9-5.1,3.1-9,4.5-9.5c1.4-0.4,1.9-0.5,2.6,0.2c0.7,0.7,7.6,16,9.1,20.5
		c1.5,4.6,1.3,6.8,3.1,8.8c1.8,2,1.6,2.4,1.9,3.3c0.2,0.9,0.3,1.7,0.4,2.5c0.1,0.8,0.6,3,0.7,3.7c0.1,0.7-0.1-0.2,0.5,1.5
		c0.6,1.7,0.2,2.1,0.2,2.9c0,0.8,1.3,9.9,1.7,11.7c0.3,1.8,1.2,3.5,1.4,5.9c0.2,2.4,0.4,2.3,0.3,4.2c-0.1,1.9-0.2,2.2,0.5,3.9
		c0.7,1.7,1.4,2.7,2,4.1c0.6,1.4,0.9,2.7,0.9,2.7l0.7,1.3c0,0-0.3,1.9-0.1,2.2c0.2,0.3,3,1.9,3.5,1.8c0.4-0.1,0.9-0.4,1,0.1
		c0.1,0.5,0.1,1,0.3,1.4c0.2,0.4,0.9,1,1.8,1.7c1,0.6,5.9,1.5,8.1,1.5c2.2-0.1,3.8-0.5,3.9-0.8c0.1-0.3,0.1-1.1,0-1.2
		c-0.1-0.2-0.3-0.3-0.3-0.3s0.2-1.3-0.2-1.8c-0.4-0.5-4.6-5-5.1-5.9c-0.5-0.9-0.5-1.2-0.5-1.2s0.3-2.2,0.2-4.2
		c-0.1-2.1-1.5-4.3-1.4-5.5c0-1.2-0.7-3.7-1.1-5.1c-0.4-1.4-3.3-14-3.4-16.3c-0.1-2.3,0.4-3.5-0.5-4.6c-0.9-1.1-1-1.2-1-1.2
		s-2.1-13.5-3-17.2c-0.8-3.7-1.1-3.1-1-5c0.1-1.8,0.8-7.4-0.6-12.1c-0.2-0.6-0.3-1.2-0.5-1.7c0.1-0.3,0.1-0.5,0.1-0.8
		c0-0.3-0.4-1.1-0.6-1.5l0,0c-0.2-0.9-0.3-1.7-0.4-2.4c0.1-0.5,0.1-1.1,0.2-1.8c0.5,0,1.1-0.1,1.1-0.6c0-0.8,0-1.5,0-1.5l1.3-0.5
		c0,0-0.6-3.9-1.1-4c-0.1,0-0.3-0.1-0.4-0.1c0.5-3.8,1-7.2,1-7.4c0.1-0.3,0.1-0.6,0.3-0.8c0.1-0.2,0.5-0.5,0.8-0.6
		c0.2-0.2,0.4-0.3,0.7-0.7c0.3-0.4,0.3-0.6,0.4-1.2c0.1-0.5-0.1-1.9-0.6-2.1c0,0-0.5,1.4-0.7,1.7c-0.2,0.3-0.4,0.4-0.8,0.3
		c-0.4,0-0.9-0.1-1.2-0.3c-0.2-0.1-0.3-0.2-0.4-0.4c0.1-0.3,0.1-0.6,0.2-0.8c0.1-0.2,0.5-0.5,0.8-0.6c0.2-0.2,0.4-0.3,0.7-0.7
		c0.3-0.4,0.3-0.6,0.4-1.2c0.1-0.5-0.1-1.9-0.6-2.1c0,0-0.5,1.4-0.7,1.7c-0.1,0.1-0.1,0.2-0.2,0.2c0-0.1,0-0.3,0.1-0.5
		c0.1-0.5-0.1-1.9-0.6-2.1c0,0-0.5,1.4-0.7,1.7c-0.2,0.3-0.4,0.4-0.8,0.3c-0.1-0.1-0.2-0.3-0.2-0.4c0-0.2,0.7-2.1,0.7-2.1
		c0-0.1,0-0.1,0-0.1c-0.5-0.2-1.6,0.7-2.2,1.5c0-0.4,0.7-2,0.7-2.1c0-0.1,0-0.1,0-0.1c-0.6-0.3-2.3,1.2-2.5,2.1c0,0.1,0,0.1,0,0.2
		c-0.2-0.3-0.3-0.3-0.5-0.4c-0.2-0.1-0.5-0.2-0.6-0.4c-0.2-0.2-0.1-1.8-0.6-2c-0.5-0.2,2.3-13.3,4-20.4c1.7-7.2,3.4-12.4,4.3-14.3
		c0.9-2,1.7-2.4,1.7-2.4s7.3-0.4,8.3-0.7c1-0.3,1.1-0.8,1.1-0.8s9.3-2.1,11.1-2.4c1.8-0.3,5.1-2.2,6.2-3.8c1.1-1.6,0.5-3.5-0.4-4.8
		c-0.9-1.4-12-17.5-13.2-19.9c-1.2-2.4-2.9-4-4.4-5.4c-1.5-1.4-7.8-4.8-8.7-4.6c-0.9,0.1-4.3,4.2-4.3,4.9c0,0.7,0.4,1.3,0.4,1.3
		s-0.5,0.7-0.4,1.2c0.1,0.5,0.2,0.9,0.7,1.1c0.6,0.2,1.5-0.1,1.9-0.1c0.4,0,0.9,0.4,1.4,0.4c0.5,0,0.5,0,1.2,0.1
		c0.7,0.1,0.6,0,1.3,0.1c0.7,0.1,2.7-0.1,3.8,0.3c1.1,0.5,3.9,3.7,4.9,6.5c1,2.7,2.5,10.2,3,12c0.5,1.8,0.7,2.1,0.5,1.9
		c-0.2-0.1-1.3-0.1-2.2-0.6c-0.9-0.5-2.1-0.8-2.4-1c-0.2-0.1,0.1,0-0.2-0.4c-0.3-0.3-0.5-0.4-0.5-0.4s-4.5-0.5-5.5-0.1
		c-1,0.3-1.2,0.4-1.7,0.3c-0.5-0.2-0.6-0.4-1.4-0.6c-0.9-0.2-1-0.1-1.4-0.2c-0.5-0.1-5.3-0.3-6.6-0.5c-1.4-0.2-2.2-0.9-2.9-0.5
		c-0.7,0.4-1.1,1-1.7,1.1c-0.6,0.1-1.3-0.8-2.4-0.8c-1.1,0-2.4,0.2-2.4,0.2s-2-2.5-2.9-3.2c-0.9-0.7-1.3-0.8-1.3-0.8l0.1-3.9
		c0,0,0.5-1.3,0.8-2.7c0.3-1.4,0.4-1.8,0.4-1.8s0.7,0.5,1.3,0.4c0.5-0.1,1.3-3.5,1.7-4.8c0.4-1.3,0.4-1.4,0.2-1.8
		c-0.2-0.3-0.2-0.6-0.2-0.6s0.7,0.2,0.8-0.1c0.1-0.2,0.4-3.4,0.1-3.5c-0.3-0.1-0.7-0.2-0.7-0.2s-0.8-5.1-1.7-7
		c-0.9-1.9-4.4-3.7-4.8-3.8c-0.4-0.1-0.4-0.2-0.4-0.2s-0.1-0.1-0.4-0.3c-0.4-0.2-2.7-0.2-2.9-0.2c-0.2,0-0.8,0.3-0.8,0.3
		s-3.3,0.2-5.5,2.5c-2.1,2.3-3.4,7.6-3.4,7.6s-0.8,0.3-0.9,0.6c-0.1,0.3-0.3,2.3-0.3,2.6c0,0.3,0.3,0.8,0.6,1.4
		c0.3,0.6,0.2,2.3,0.2,4c0.1,1.6,0.1,2,0.7,2.4c0.5,0.3,1.2,0.4,1.2,0.4s0.2,3.2,0.9,4.2c0.6,1,0.7,1.2,0.7,1.2s0,3.1,0,3.4
		C167.6,265.2,167.3,265.3,167.3,265.3L167.3,265.3z M193.5,329.5L193.5,329.5c-0.2,0-0.4,0-0.4-0.3c0-0.3,0.1-1.3,0.1-2.3
		c0.1,0.2,0.2,0.5,0.3,0.7c0.1,0.4,0.2,0.5,0.1,1.4C193.6,329.2,193.5,329.3,193.5,329.5L193.5,329.5z M154.3,326.8L154.3,326.8
		c-0.4,1.2-1,2.8-1,2.8s-0.2-1.3-0.9-1.3c-0.3,0-0.6,0-0.7,0.1c0.1-0.2,0.2-0.9,0.4-1.2c0.2-0.3,0.1-0.4,0.6-0.5
		c0.5-0.1,1.1-0.1,1.4,0C154.1,326.8,154.2,326.8,154.3,326.8L154.3,326.8z M151.5,328.6L151.5,328.6c0,0.1,0,0.1,0,0.2l0,0
		L151.5,328.6C151.5,328.6,151.5,328.6,151.5,328.6L151.5,328.6z M151.5,328.8L151.5,328.8c0,0.3,0.2,0.5,0.3,0.9
		c0.1,0.5,0.6,2.2,0.4,2.4c-0.1,0.2-0.4,0.5-0.6,0.4l0-0.5c0-0.5,0-1.3-0.1-1.7l-0.1-0.8c0,0,0.1-0.1,0.1-0.2
		C151.5,329.3,151.5,329,151.5,328.8z"/>
	<path class="st6" d="M376.6,268.7c-0.2,0.4-2.4,4.3-2.8,6.5c-0.3,2.2-0.5,2.7-0.5,2.7s-2,1.8-2.7,2.5c-0.7,0.6-2.7,2.2-4,3.1
		c-1.2,0.9-1.4,1.3-1.4,1.3s-1.7-0.5-3.1-0.1c-1.4,0.4-2.4,1-2.6,1c-0.3,0-1.6-0.3-3.1-1.5c-1.5-1.2-3-2-3-2s0.7-2.5,1.2-3
		c0.5-0.5,0.7-0.2,0.8-1.3c0.1-1.1-0.7-2.3-0.7-2.3L376.6,268.7L376.6,268.7z M383.9,436.3L383.9,436.3c0.3-0.2,0.5-0.7,0.8-1.4
		c0.5-1.3-0.9-11.4-0.1-15.3c0.8-3.8,1-8.7,1.1-11.6c0-2.8,2.5-8.9,2.1-10.8c-0.4-1.9-0.4-2.5-0.4-2.5s1.1-4.1,2.3-6.4
		c1.2-2.4,0.6-2.2,1.5-7.5c1-5.3,1.1-7,2.7-9.7c1.5-2.7,3.2-5.5,3.6-7.6c0.4-2.1,0.7-4.6,1.1-5.6c0.5-1,1.5-4.9,2.2-4.3
		c4.2,3.9,5.7,11.3,7.9,16.8c2.2,5.5,3.1,11.5,3.4,13.4c0.3,1.9,2.1,4.1,2.1,6l-0.1,5.8c0,1-0.1,1.9-0.3,2.7
		c-0.2,0.8-0.6,1.3-0.3,2.1c0.3,0.8,0.2,1.9,0.4,3.3c0.2,1.3-0.2,0.7-0.2,2.7c0,2,0.1,9-0.2,11.8c-0.3,2.8,0.2,3.6,0.7,6.2
		c0.6,2.7,1.9,4.3,1.9,4.3s-0.6,2.2-0.6,3.3l0,2.2l-0.1,0.1c-0.1,0.2-0.2,1.7-0.2,2.6c0,0.2,0,0.4,0,0.7c0,0.1,0,0.2,0,0.3
		c-0.1,0.4-0.3,1.1-0.1,2.3c0.2,1.7-0.4,2.6,0.7,3.3c1.1,0.7,4.5,0.2,5.4,0.6c0.9,0.3,1.2,0.7,1.6,1.4c0.5,0.7,0.6,1.2,1.1,1.5
		c0.6,0.3,7.9-0.1,10.8-0.6c2.8-0.4,2.5-1.6,2.5-2.1c0-0.6-0.9-3.3-1.8-4.4c-0.9-1.1-2.6-0.9-3.1-1.8c-0.5-0.9-1.5-1.6-1.8-2.7
		c-0.1-0.3-0.1-0.6-0.2-0.8c0-0.1,0.1-0.2,0.1-0.3c0.4-1.3,2.6-0.9,1.8-2.9c-0.8-2-0.2-3.6-0.7-5.1c-0.6-1.5-0.3-4.2-0.3-5
		c0-0.7-1.4-3.9-1.4-3.9s1-11.7,1-15.7c0.1-4-0.8-4.2-1.2-6.3c-0.4-2.1-1.1-2.8-1-6c0.2-3.1-0.7-4.8-0.7-6.1c0-1.3,0.4-5,0.4-5
		s1.1-19.4,0.3-23.3c-0.8-3.9-1.4-3.4-1.4-4.9c-0.1-1.5-0.5-8-1-9.4c-0.5-1.3-0.8-1.4-0.8-1.4s0.3-1.8,0.2-2.4
		c-0.1-0.6-0.2-0.7-0.2-0.7s0-2.9,0.9-3.6c0.9-0.7,3.1-2,4.3-4.5c1.1-2.5,1.8-3.6,2.2-4c0.4-0.4,9-5,12.5-10.7
		c3.5-5.7,5-7.2,5.7-8.2c0.7-1,2.4-1.7,2.9-3.2c0.5-1.6-0.3-2.9-0.5-3.5c-0.2-0.6-4.8-13.9-7.6-16.8c-2.8-2.9-4.8-2.8-5.9-4.5
		c-1.1-1.6-1.4-5.6-4.9-7.9c-3.5-2.3-10-3.3-10.5-3.6c-0.4-0.3-2.3-2.8-4.2-4.2c-1.9-1.4-4.9-1.8-5.7-2.5c-0.7-0.8-1.2-1.6-1.2-1.6
		l11.6-3.6c0,0,0.4,1.4,0.7,1.8c0.4,0.5,1.3,0.6,1.4,1.1c0.2,0.4,1.2,4.8,2.2,5.4c1,0.6,5.9-1.3,7.5-2c1.6-0.7,3.9-3.2,3.9-3.5
		c0-0.3-2.3-6.2-2.3-6.4c0-0.2,0.3-1.2,0.3-1.4c0-0.2-2.6-6.3-3.1-6.6c-0.5-0.4-1-0.7-1.1-0.9c-0.1-0.3-2.3-5.2-2.8-5.5
		c-0.5-0.2-6.9,1.5-8.6,2.8c-1.8,1.3-3,2.6-3,3.4c0,0.8,3.3,7.4,3.3,7.4l-10.2,3l0-1.6c0,0,0.4,0.4,1-0.4c0.6-0.8,1-1.8,1-2.2
		c0-0.4,0.2-3.1-0.1-3.7c-0.3-0.6-0.3-0.7-0.3-0.7s1.1-1.2,1-2.3c-0.1-1-0.6-1.1-0.6-1.3c0-0.3-0.3-1.5-0.3-1.5l-0.1-0.9l-0.8-1
		c0,0-0.4-3.6-1.2-5.1c-0.7-1.5-3.8-3.7-4.2-3.9c-0.3-0.2-0.4-0.4-0.7-0.5c-0.3-0.2-3.3-0.5-3.3-0.5s0-0.6-0.7-0.7
		c-0.7-0.1-4,0.3-4.4,0.5c-0.3,0.2-0.6,0.7-0.6,0.7s-2.9,1-3.5,2c-0.7,1-0.7,1.3-0.7,1.3s-1.4,1.1-1.9,2.8c-0.5,1.7-0.7,4.3-0.7,4.3
		s-1.4,1-1.6,2.1c-0.1,1,0.6,2.8,1.6,3.2c1,0.5,1.5,0.8,1.5,0.8s0,2,0.1,2.2c0.1,0.2,0.2,0.4,0.1,0.4c-0.1,0-0.7,0.1-0.7,0.3
		c-0.1,0.2,0.1,1.8,0.1,2.2c0,0.4,0.3,2.1,0.6,2.9c0.3,0.8,1.1,0.8,1.1,0.8s0.3,1.7,0.7,2.4c0.4,0.7,0.5,0.8,0.5,0.9
		c0,0.1,0,1.8,0,1.8L350.4,272c0,0-1.1-2.2-1.9-2.3c-0.8-0.2-1.4,0.2-1.7,0.6c-0.3,0.4-0.3,0.9-0.3,0.9s-1-0.6-1.8-0.2
		c-0.8,0.4-0.9,1.3-0.9,1.3s-1.3,0-1.6,0.4c-0.4,0.4-0.4,0.8-0.4,0.8s-0.8-0.6-1.5,0.2c-0.7,0.8-0.5,2.3-0.3,2.7
		c0.2,0.3,0.9,1.1,1.3,2.5c0.4,1.4,0.1,2.5,1.4,4.2c1.3,1.8,2.5,2.1,3.1,2.4c0.6,0.3,7.8,9.5,10.5,11.2c2.7,1.7,5.2,2.1,5.8,2.1
		c0.6,0,3.5,0.9,5.7,0.5c2.2-0.3,10.4-5.8,12.6-7.6c2.2-1.8,2.8-2.4,2.8-2.4s1.2,6.3,1.4,8.4c0.1,2.2-0.5,7.7-0.8,12.2
		c-0.3,4.5-0.4,9.3,0,11c0.3,1.7,0.2,2.1,0.2,2.1s-0.8,1.8-1.1,1.8c-0.2,0.1-0.7,0.6-0.9,1.1c-0.2,0.5-0.2,0.6-0.6,2.2
		c-0.4,1.6-0.7,2.1-0.6,2.7c0.1,0.7-4.1,17.9-5.4,23.2c-1.3,5.3-2.4,11.1-2.1,15.6c0.2,4.5,0.4,6.2-0.1,9.2c-0.5,3-1.3,4.9-0.8,7.1
		c0.4,2.2,1.6,3.6,1,4.8c-0.6,1.2-0.3,0.4-1.3,4.7c-1,4.3-1.4,6.4-2.1,10.8c-0.7,4.4,0.7,3.7-1.3,7.6c-2,3.9-2.3,6.8-1.8,9.2
		c0.6,2.4,1.5,2.1,1.4,3.9c0,1.8-0.6,2.7-0.6,3.4c0,0.7-0.7,1.9,0.5,2.6c-0.4,0.6-0.9,1-1.3,1.6c-0.6,0.9-2.2,0.7-3.2,1.7
		c-1,1-1.9,3.8-1.9,4.3c0,0.6-0.4,1.7,2.5,2.2c2.8,0.5,10.1,1.1,10.7,0.9c0.6-0.3,0.7-0.8,1.2-1.4c0.5-0.7,0.7-1,1.7-1.3
		c0.9-0.3,4.2,0.3,5.4-0.4c1.1-0.7,0.5-1.7,0.8-3.3C383.9,436.8,383.9,436.5,383.9,436.3L383.9,436.3z M423.6,295L423.6,295
		c1.7-2.8,4.3-8.1,4.3-8.1s3,4.5,5.3,7.3c2.3,2.8,4.8,3.6,4.8,3.6s-0.3,0.6-1.1,2.8c-0.8,2.3-0.8,6.3-1.6,8c-0.8,1.7-4,4.5-5.1,7
		c-1.1,2.5-9.1,9.1-9.1,9.1s-0.9-3.2-0.9-3.6c0-0.4,0.3-1.6,0-4.7c-0.3-3.1-1.9-9.1-1.9-9.1s0.6-3.5,1.3-5.5
		C420.5,299.7,421.9,297.8,423.6,295z"/>
	<path class="st6" d="M65.6,296.7c0,0,0.3,5.1,1.8,8.2c1.5,3,1,2,1.3,2.8c0.3,0.8-0.1,0.6-0.3,2.6c-0.3,1.9,0.4,4.2,0.4,4.2l0,1.4
		c0,0.8-0.1,1.5-0.9,2.9c-0.8,1.4-0.6,0.6-0.8,2.7c-0.1,2.1,0.7,7.6,0.8,8c0.2,0.4,0.4,0.6,0.4,0.6s0.2,0.4,0.3,0.8
		c0.1,0.4-0.5,0.3-0.5,0.3l-0.1,2.2c0,0,0,0.2-0.3,0.2c-0.3,0-0.6,0.5-0.7,0.7c-0.2,0.3-0.2,0.4-0.4,0.9c-0.2,0.4-0.7,1.8-0.8,2.1
		c-0.1,0.3,0.4,0.7,0.4,0.7l-0.1,0.7l-0.8,1c0,0-0.9,0.4-2,0.2c-1.1-0.1-3.9-1.9-4.3-2.2c-0.4-0.3-0.6-1.5-1.8-4.2
		c-1.2-2.7-1.5-5.5-2.3-10.3c-0.8-4.8-1.7-8.6-1.5-9.4c0.2-0.8,0.8-1.4,3-4.3c2.2-2.9,4.7-8.7,4.7-8.7s0.6,0,0.9,0.1
		c0.4,0.1,0.1,0,0.5-0.4c0.4-0.4,0.6-1.1,1-1.7C63.8,298.2,65.1,297.5,65.6,296.7L65.6,296.7z M83,237.6L83,237.6
		c-0.2,0.1-0.3,0.6-0.7,0.9c-0.4,0.3-2.5,1-3.3,1.6c-0.8,0.6-2.8,3-3.3,4.3c-0.5,1.3-1,5.1-1,5.1s-0.5,0.2-0.5,0.4
		c0,0.3-0.1,0.4-0.1,0.4s-0.5,0.1-0.5,0.4c0,0.3,0,2.6,0.2,2.8c0.1,0.1,0.4,0.5,1,0.8c-0.1,0.3-0.1,0.7-0.2,1.2
		c-0.2,2,0.9,3.6,1.7,4.1c0.8,0.5,1.2,0.2,1.2,0.7c0,0.5,0.3,2.6,0.6,3.8c0.3,1.2,0.3,0.7,0.3,1.7c0,1-0.1,4.8-0.4,5.1
		c-0.4,0.2-1.9,1.2-1.9,1.2c-0.1,0-0.4,0.1-0.4,0.1s-0.1-0.1-0.2-0.1c-0.1,0-0.4,0.1-0.5,0.3c-0.2,0.1-6.3,3.5-8.4,4
		c-2.1,0.5-2.3,0.2-4.4,2c-2.1,1.8-4.7,5.2-6,7.3c-1.3,2.2-1.8,5.3-2.1,5.8c-0.3,0.5-0.2,0.4-0.8,1.3c-0.6,1-1,2.2-1,2.2l0.3,0.7
		c0,0-3.1,5.5-4.6,9.4c-1.5,3.9-2.4,6.6-2.6,7.9c-0.2,1.3-0.3,1.2,0,2c0.3,0.8,5.1,17.4,5.7,19.1c0.6,1.8,0.6,3.6,1.4,5
		c0.7,1.4,0.9,1.6,1.1,2.2c0.3,0.5,0.5,2.4,2,3.6c1.5,1.2,2.4,1.2,3.2,2c0.8,0.8,2.6,3,2.6,3l0.3,2.7c0,0,4.5,1.1,4.9,1.3
		c0.4,0.2,0.5,0.4,0.5,0.4s-0.3,7.5-0.1,9.2c0.2,1.7,0.1,1.2,0.3,2.9c0.2,1.7-0.8,2,0.2,5.1c1,3.1,1.2,2.6,1.5,4.1
		c0.3,1.5-1.6,2.2-1.3,6.3c0.3,4.1,0.7,5,0.8,8c0,3-0.1,3.3-0.3,5.1c-0.2,1.7-0.7,0.1-0.1,2.9c0.6,2.8-0.9,5.9,0.3,9.7
		c1.1,3.8,1.8,6.4,2,7.8c0.2,1.4-0.1,1.9,0,2.5c0.1,0.6,0,0.1-0.6,0.8c-0.6,0.6-0.7,1.1-0.7,1.9c0,0.8,0.8,1,0.9,1.9
		c0.1,0.8-0.2,1.1-0.2,1.1s-0.2-0.6-0.5,0.1c-0.3,0.7,0.1,3.2,0.1,3.6c0,0.4,0.3,2,0.3,2.4c0,0.4-0.5,2.4-0.5,3.6
		c0,1.2-0.3,2.2-0.4,3.1c0,0.9,0.1,1.6,0,2c0,0.4-3.5,4.1-4.1,4.9c-0.6,0.8-0.8,1.2-0.9,2.2c0,1,0.1,1.4,0.1,1.4s-0.2,0.1-0.2,0.8
		c0,0.7,0.1,1.4,0.2,1.9c0.2,0.5,1.7,1.3,5.1,1.4c3.4,0,6.5-1.9,6.9-2.3c0.3-0.4,0.5-0.7,0.5-0.7s0-1.2,0.2-1.5
		c0.2-0.3,0.4-1.3,1-1.5c0.6-0.2,1.3-0.2,1.8-0.4c0.4-0.2,1.9-1.4,2-1.5c0.1-0.1,0.2-2.9-0.1-3.4c-0.3-0.5-0.3-0.7-0.3-0.9
		c0-0.2,0.4-1.3,0.4-3.1c0-1.8,0.8-4.8,0.5-5.8c-0.3-1-0.5-1-0.3-1.5c0.2-0.5,1-2.2,0.9-3.1c-0.1-0.9-0.1-1.2-0.1-1.2
		s1.3-1.6,1.4-2.5c0.1-0.9,0.3-3.7-0.1-5c-0.4-1.3-0.4-1.1-0.3-1.9c0.1-0.8,0.2-11.9-0.5-15.9c-0.7-4-0.7-4-0.5-4.8
		c0.2-0.8,1.1-3.7,0.9-4.5c-0.1-0.8,0.4-5.3,1-10.7c0.6-5.3,1.6-9,1.9-9.8c0.3-0.8,3.6-5.4,3.6-5.4s3.6,5.9,4.2,8.6
		c0.6,2.7,0.9,4.8,1.4,6.8c0.5,2.1,1.3,2.3,1.1,4.5c-0.1,2.2-0.1,1.2-0.2,3.9c0,2.7,1,3.1,1.1,4.2c0.1,1.2-0.1,0.8-0.4,2.2
		c-0.3,1.4-0.8,2.1-0.7,3.2c0.2,1.1,0.4,0.8,0.1,1.8c-0.3,0.9-0.6,0.9-0.6,2.7c0,1.8,0,1.8,0,2.4c0.1,0.6-0.8,10.9-0.7,12.2
		c0.1,1.3,0.2,1.4,0.4,2.2c0.1,0.8,0.4,1,0.4,1s-0.5,1.2-0.6,2.2c-0.1,1.1,0.5,0.9,0.6,1.5c0.1,0.5-0.3-0.2,0.1,1.6
		c0.4,1.8,1.1,1.7,1.2,2.3c0,0.5-0.5,2.8-0.2,4.2c0.3,1.4,0.5,1.9,0.5,1.9s-0.8,1.5-0.6,3.4c0.2,2,0.4,2.3,0.4,2.3s-0.4,0.2-0.5,0.8
		c-0.1,0.6,0.1,2.3,0.1,2.3s3.1,1.7,3.7,1.8c0.5,0.1,1.6-0.2,1.6-0.2s1.3,0.2,1.8,1.5c0.5,1.3,0.2,1.3,1.1,2.2
		c0.9,0.9,5.8,2.5,8.3,2.2c2.4-0.3,3.8-0.6,4.2-1.2c0.4-0.6,0.3-2.8,0.1-2.9c-0.3-0.1,0-2.1-1.1-3.1c-1.1-1.1-3.4-2.4-3.9-2.9
		c-0.4-0.4-0.3-1.1-0.7-2c-0.4-0.9-1.1-2.1-1.1-2.1s-0.2-1.2-0.2-1.7c-0.1-0.5-0.1-0.9-0.3-1.3c-0.3-0.4-0.5-2.5-0.6-4.3
		c-0.1-1.8,0.1-2,0.1-2.9c0-0.9,0.5-1.3,0-2.1c-0.5-0.8-0.5-1.5-0.5-1.5s0.9-0.9,0.5-1.7c-0.4-0.8-0.8-0.9-0.8-1.7
		c0.1-0.8,0.5-0.3,0.3-2c-0.2-1.7,0.1-1.5-0.3-2.3c-0.4-0.8-0.4-0.9-0.4-0.9s1.4-6.9,2.2-11.7c0.8-4.9,0.3-6.4,0.1-8
		c-0.2-1.6-0.4-2.8-0.4-3.4c0.1-0.6,0.1-10.1,0.2-12.6c0.1-2.5-0.2-2.6-0.2-4c0-1,0.1-4,0.2-6.4l0.9,11.2c0,0.4,0.3,0.6,0.7,0.6
		l0.9-0.1c0.4,0,0.6-0.3,0.6-0.7l-1.4-17.9c0.8,6.6,2.5,19.7,2.7,19.8c0.2,0.1,2-0.2,2-0.2s-3.8-24.9-3.5-25c0.3-0.1,0.8,0.4,0.8-1
		c-0.1-1.3,0-2.2-0.5-2.8c-0.4-0.6-0.5-1.9-0.8-2.3c-0.3-0.3,0.3-0.8-0.6-0.5l-0.8,0.3c0,0,0.1-1,0.1-2l2.2-7.1
		c0.1-0.4-0.1-0.8-0.5-0.9l-1.2-0.4c-0.4-0.1-0.8,0.1-0.9,0.5l-0.5,1.7c0-0.1,0-0.2-0.1-0.5c-0.3-0.6-0.2-0.6-0.2-0.6s1-2.5,1.3-2.5
		c0.3,0,0.6-0.1,0.9-0.8c0.3-0.6,0.1-2-0.1-2.1c-0.2-0.1-0.4-0.1-0.4-0.1s-0.4,1.4-0.5,1.5c-0.1,0.2-0.4,0.2-0.4,0
		c-0.1-0.2,0.6-1.9,0.6-1.9s-0.2-0.2-0.4-0.2c-0.2,0-0.9,0.4-1.1,0.7c-0.3,0.4-0.4,0.5-0.4,0.5s-0.5,0.1-0.8,0.4
		c-0.3,0.3-0.7,0.9-0.7,1.7c0,0.7,0.2,0.8,0.1,1.1c-0.1,0.3-0.4,0.9-0.4,0.9s-0.3-9.9-0.8-10.2c-0.5-0.3-1.3-0.4-1.3-0.4
		s-0.4-1.3-0.9-2.1c-0.5-0.8-1.5-0.4-0.8-2.4c0.7-2.1,0.7-2.4,0.5-3.1c-0.3-0.8-0.9-6.2-1.5-7.4c-0.6-1.2-0.7-2.1-0.6-2.6
		c0.1-0.5-0.7-5.1-0.1-6.9c0.6-1.8,1.4-4.3,1.3-5.5c-0.1-1.2,0.3-1.8,0.3-1.8s1.6,3.4,2.3,4.3c0.8,0.9,0.2,1.9,1.3,2.1
		c1,0.2,1.6-0.6,1.6-0.6s5.3,5.9,7,7.2c1.7,1.3,2.7,1.7,2.9,2c0.3,0.3,1.5,1.8,2.9,2.2c1.4,0.4,4.5,0.1,6.8-1.6
		c2.3-1.7,3.4-3,3.7-3.2c0.3-0.2,0.8-0.6,1.6-0.7c0.8-0.1,3.5-0.4,4.6-0.9c1.1-0.4,1.5-0.6,1.5-1.3l0-0.8c0,0,0.6-0.5,0.7-1.2
		c0.2-0.8-0.2-1.6-0.2-1.6s0.6-0.3,0.6-1.1c0-0.9-0.5-0.8-0.6-1.4c-0.1-0.6,0.3-1.6-0.3-2.1c-0.6-0.5-3.6-0.6-3.6-0.6
		s0.6-1.2,1.2-2.2c0.6-1,1.3-2.8,1.1-3.7c-0.3-0.8-0.9-0.8-1.4-0.5c-0.5,0.3-1.1,2.2-2.1,3.5c-1,1.3-3.4,3.4-4,4.8
		c-0.6,1.3-0.2,2.2-0.5,2.4c-0.2,0.2-0.6,0.3-1,0.6c-0.3,0.3-0.4,0.5-0.6,0.7c-0.2,0.3-0.1,0.3-0.4,0.4c-0.3,0.1-4,0-4.5,0.1
		l-0.5,0.1c0,0-6.3-6.8-6.8-7.4c-0.4-0.6-0.4-0.9-0.4-0.9l0.3-0.8c0,0-4.2-6.8-6.1-10.8c-2-3.9-2.7-2.8-4.4-4.7
		c-1.7-1.9-8.1-3.8-10.8-5.2c-2.6-1.4-2.6-1.3-2.8-1.3c-0.2,0-1.4-0.5-1.6-0.9c-0.2-0.4-0.2-4-0.2-4.1c0-0.1,1-2.4,1.4-3.7
		c0.4-1.3,0.5-1.4,0.5-1.4s1-0.7,1.4-2.1c0.4-1.4,0.6-3.4,0.5-3.7c0-0.1-0.1-0.2-0.1-0.2c0.8-0.3,1.2-0.6,1.3-0.8
		c0.2-0.4,0.2-3.1,0.2-3.1s-0.7-0.6-0.9-0.8c-0.1-0.2-0.5-0.7-0.4-1c0-0.3-0.1-3.4-1.2-5.4c-1.1-2-2.8-3.6-4-4.1
		c-1.2-0.5-2.7-1.1-2.9-1.4c-0.2-0.3-0.2-0.9-1.8-0.9C83.4,237.4,83,237.6,83,237.6L83,237.6z M110.4,339.7L110.4,339.7l-0.1,0.3
		L110.4,339.7C110.3,339.8,110.3,339.7,110.4,339.7z"/>
</g>
<g id="DESIGNED_BY_FREEPIK">
</g>
</svg>
